<svg width="479" height="372" viewBox="0 0 479 372" fill="none" xmlns="http://www.w3.org/2000/svg">
<path d="M239 37.5691C244.525 37.5691 249.824 39.764 253.731 43.671C257.638 47.578 259.833 52.8771 259.833 58.4024V83.4024H251.5V58.4024C251.5 55.214 250.282 52.1461 248.095 49.8263C245.907 47.5066 242.916 46.1103 239.733 45.9233L239 45.9024C235.812 45.9022 232.744 47.1204 230.424 49.3078C228.104 51.4951 226.708 54.4862 226.521 57.6691L226.5 58.4024V83.4024H218.167V58.4024C218.167 52.8771 220.362 47.578 224.269 43.671C228.176 39.764 233.475 37.5691 239 37.5691ZM211.917 50.0691C213.079 50.0691 214.208 50.2066 215.292 50.4608C214.579 52.5816 214.157 54.7892 214.038 57.0233L214 58.4024V58.7608C213.521 58.5894 213.023 58.4774 212.517 58.4274L211.917 58.4024C210.363 58.4025 208.865 58.9813 207.715 60.0258C206.565 61.0704 205.845 62.5059 205.696 64.0524L205.667 64.6524V83.4024H197.333V64.6524C197.333 60.7847 198.87 57.0754 201.605 54.3405C204.34 51.6055 208.049 50.0691 211.917 50.0691ZM266.083 50.0691C269.951 50.0691 273.66 51.6055 276.395 54.3405C279.13 57.0754 280.667 60.7847 280.667 64.6524V83.4024H272.333V64.6524C272.333 63.0987 271.755 61.6008 270.71 60.4507C269.665 59.3006 268.23 58.5807 266.683 58.4316L266.083 58.4024C265.354 58.4024 264.654 58.5274 264 58.7566V58.4024C264 55.6274 263.55 52.9608 262.713 50.4691C263.816 50.2019 264.948 50.0676 266.083 50.0691ZM211.917 25.0691C214.679 25.0691 217.329 26.1666 219.282 28.1201C221.236 30.0736 222.333 32.7231 222.333 35.4858C222.333 38.2484 221.236 40.8979 219.282 42.8515C217.329 44.805 214.679 45.9024 211.917 45.9024C209.154 45.9024 206.505 44.805 204.551 42.8515C202.598 40.8979 201.5 38.2484 201.5 35.4858C201.5 32.7231 202.598 30.0736 204.551 28.1201C206.505 26.1666 209.154 25.0691 211.917 25.0691ZM266.083 25.0691C268.846 25.0691 271.496 26.1666 273.449 28.1201C275.403 30.0736 276.5 32.7231 276.5 35.4858C276.5 38.2484 275.403 40.8979 273.449 42.8515C271.496 44.805 268.846 45.9024 266.083 45.9024C263.321 45.9024 260.671 44.805 258.718 42.8515C256.764 40.8979 255.667 38.2484 255.667 35.4858C255.667 32.7231 256.764 30.0736 258.718 28.1201C260.671 26.1666 263.321 25.0691 266.083 25.0691ZM211.917 33.4024C211.364 33.4024 210.834 33.6219 210.444 34.0126C210.053 34.4033 209.833 34.9332 209.833 35.4858C209.833 36.0383 210.053 36.5682 210.444 36.9589C210.834 37.3496 211.364 37.5691 211.917 37.5691C212.469 37.5691 212.999 37.3496 213.39 36.9589C213.781 36.5682 214 36.0383 214 35.4858C214 34.9332 213.781 34.4033 213.39 34.0126C212.999 33.6219 212.469 33.4024 211.917 33.4024ZM266.083 33.4024C265.531 33.4024 265.001 33.6219 264.61 34.0126C264.22 34.4033 264 34.9332 264 35.4858C264 36.0383 264.22 36.5682 264.61 36.9589C265.001 37.3496 265.531 37.5691 266.083 37.5691C266.636 37.5691 267.166 37.3496 267.557 36.9589C267.947 36.5682 268.167 36.0383 268.167 35.4858C268.167 34.9332 267.947 34.4033 267.557 34.0126C267.166 33.6219 266.636 33.4024 266.083 33.4024ZM239 0.0690918C243.42 0.0690918 247.66 1.82504 250.785 4.95065C253.911 8.07625 255.667 12.3155 255.667 16.7358C255.667 21.156 253.911 25.3953 250.785 28.5209C247.66 31.6465 243.42 33.4024 239 33.4024C234.58 33.4024 230.341 31.6465 227.215 28.5209C224.089 25.3953 222.333 21.156 222.333 16.7358C222.333 12.3155 224.089 8.07625 227.215 4.95065C230.341 1.82504 234.58 0.0690918 239 0.0690918ZM239 8.40242C236.79 8.40242 234.67 9.2804 233.107 10.8432C231.545 12.406 230.667 14.5256 230.667 16.7358C230.667 18.9459 231.545 21.0655 233.107 22.6283C234.67 24.1911 236.79 25.0691 239 25.0691C241.21 25.0691 243.33 24.1911 244.893 22.6283C246.455 21.0655 247.333 18.9459 247.333 16.7358C247.333 14.5256 246.455 12.406 244.893 10.8432C243.33 9.2804 241.21 8.40242 239 8.40242Z" fill="black"/>
<path d="M8.08047 203.226V215.736H14.3625V214.08H10.1325V203.226H8.08047ZM25.5285 210.768C25.5285 207.654 23.2965 205.656 20.4705 205.656C17.6445 205.656 15.4125 207.654 15.4125 210.768C15.4125 213.882 17.5545 215.898 20.3805 215.898C23.2245 215.898 25.5285 213.882 25.5285 210.768ZM17.5005 210.768C17.5005 208.518 18.8865 207.438 20.4345 207.438C21.9645 207.438 23.4225 208.518 23.4225 210.768C23.4225 213.018 21.9105 214.116 20.3805 214.116C18.8325 214.116 17.5005 213.018 17.5005 210.768ZM29.609 210.516C29.609 208.41 30.545 207.78 32.057 207.78H32.579V205.656C31.175 205.656 30.185 206.268 29.609 207.258V205.818H27.557V215.736H29.609V210.516ZM38.6412 207.384C40.1712 207.384 41.3772 208.356 41.4132 209.886H35.9232C36.1392 208.32 37.2552 207.384 38.6412 207.384ZM43.2852 212.784H41.0712C40.6932 213.558 39.9912 214.17 38.7312 214.17C37.2192 214.17 36.0492 213.18 35.9052 211.542H43.4832C43.5372 211.2 43.5552 210.876 43.5552 210.534C43.5552 207.618 41.5572 205.656 38.7312 205.656C35.7972 205.656 33.7812 207.654 33.7812 210.768C33.7812 213.882 35.8872 215.898 38.7312 215.898C41.1612 215.898 42.7272 214.512 43.2852 212.784ZM59.6326 215.736H61.6666V209.886C61.6666 207.114 59.9026 205.656 57.5806 205.656C56.1406 205.656 54.7366 206.412 54.1246 207.618C53.4406 206.322 52.1266 205.656 50.5606 205.656C49.3726 205.656 48.2926 206.142 47.6266 206.952V205.818H45.5746V215.736H47.6266V210.192C47.6266 208.374 48.6166 207.438 50.1286 207.438C51.6226 207.438 52.6126 208.374 52.6126 210.192V215.736H54.6466V210.192C54.6466 208.374 55.6366 207.438 57.1486 207.438C58.6426 207.438 59.6326 208.374 59.6326 210.192V215.736ZM68.9535 215.736H71.0055V205.818H68.9535V215.736ZM69.9975 204.504C70.7175 204.504 71.2935 203.928 71.2935 203.19C71.2935 202.452 70.7175 201.876 69.9975 201.876C69.2595 201.876 68.6835 202.452 68.6835 203.19C68.6835 203.928 69.2595 204.504 69.9975 204.504ZM75.7516 207.276V205.818H73.6996V220.452H75.7516V214.296C76.3996 215.07 77.5696 215.898 79.2076 215.898C81.8176 215.898 83.8696 213.792 83.8696 210.732C83.8696 207.672 81.8176 205.656 79.2076 205.656C77.5876 205.656 76.3816 206.448 75.7516 207.276ZM81.7816 210.732C81.7816 212.874 80.3056 214.116 78.7576 214.116C77.2276 214.116 75.7516 212.91 75.7516 210.768C75.7516 208.644 77.2276 207.438 78.7576 207.438C80.3056 207.438 81.7816 208.59 81.7816 210.732ZM93.2968 212.964C93.1888 209.382 87.5908 210.498 87.5908 208.5C87.5908 207.834 88.1668 207.384 89.2648 207.384C90.3808 207.384 91.0468 207.978 91.1188 208.842H93.1708C93.0628 206.862 91.5868 205.656 89.3368 205.656C86.9968 205.656 85.5208 206.934 85.5208 208.518C85.5208 212.154 91.2808 211.038 91.2808 212.982C91.2808 213.666 90.6508 214.17 89.4628 214.17C88.3288 214.17 87.5548 213.504 87.4828 212.694H85.3588C85.4488 214.494 87.1228 215.898 89.4988 215.898C91.8388 215.898 93.2968 214.638 93.2968 212.964ZM104.496 205.818H102.444V211.344C102.444 213.162 101.454 214.098 99.9421 214.098C98.4481 214.098 97.4581 213.162 97.4581 211.344V205.818H95.4241V211.65C95.4241 214.422 97.1881 215.88 99.5101 215.88C100.68 215.88 101.796 215.394 102.444 214.548V215.736H104.496V205.818ZM121.262 215.736H123.296V209.886C123.296 207.114 121.532 205.656 119.21 205.656C117.77 205.656 116.366 206.412 115.754 207.618C115.07 206.322 113.756 205.656 112.19 205.656C111.002 205.656 109.922 206.142 109.256 206.952V205.818H107.204V215.736H109.256V210.192C109.256 208.374 110.246 207.438 111.758 207.438C113.252 207.438 114.242 208.374 114.242 210.192V215.736H116.276V210.192C116.276 208.374 117.266 207.438 118.778 207.438C120.272 207.438 121.262 208.374 121.262 210.192V215.736ZM129.898 210.732C129.898 213.792 131.968 215.898 134.578 215.898C136.198 215.898 137.386 215.142 138.016 214.242V215.736H140.086V202.416H138.016V207.204C137.26 206.268 135.892 205.656 134.596 205.656C131.968 205.656 129.898 207.672 129.898 210.732ZM138.016 210.768C138.016 212.91 136.558 214.116 135.01 214.116C133.48 214.116 132.004 212.874 132.004 210.732C132.004 208.59 133.48 207.438 135.01 207.438C136.558 207.438 138.016 208.644 138.016 210.768ZM152.232 210.768C152.232 207.654 150 205.656 147.174 205.656C144.348 205.656 142.116 207.654 142.116 210.768C142.116 213.882 144.258 215.898 147.084 215.898C149.928 215.898 152.232 213.882 152.232 210.768ZM144.204 210.768C144.204 208.518 145.59 207.438 147.138 207.438C148.668 207.438 150.126 208.518 150.126 210.768C150.126 213.018 148.614 214.116 147.084 214.116C145.536 214.116 144.204 213.018 144.204 210.768ZM154.26 215.736H156.312V202.416H154.26V215.736ZM168.456 210.768C168.456 207.654 166.224 205.656 163.398 205.656C160.572 205.656 158.34 207.654 158.34 210.768C158.34 213.882 160.482 215.898 163.308 215.898C166.152 215.898 168.456 213.882 168.456 210.768ZM160.428 210.768C160.428 208.518 161.814 207.438 163.362 207.438C164.892 207.438 166.35 208.518 166.35 210.768C166.35 213.018 164.838 214.116 163.308 214.116C161.76 214.116 160.428 213.018 160.428 210.768ZM172.537 210.516C172.537 208.41 173.473 207.78 174.985 207.78H175.507V205.656C174.103 205.656 173.113 206.268 172.537 207.258V205.818H170.485V215.736H172.537V210.516ZM189.467 212.964C189.359 209.382 183.761 210.498 183.761 208.5C183.761 207.834 184.337 207.384 185.435 207.384C186.551 207.384 187.217 207.978 187.289 208.842H189.341C189.233 206.862 187.757 205.656 185.507 205.656C183.167 205.656 181.691 206.934 181.691 208.518C181.691 212.154 187.451 211.038 187.451 212.982C187.451 213.666 186.821 214.17 185.633 214.17C184.499 214.17 183.725 213.504 183.653 212.694H181.529C181.619 214.494 183.293 215.898 185.669 215.898C188.009 215.898 189.467 214.638 189.467 212.964ZM191.684 215.736H193.736V205.818H191.684V215.736ZM192.728 204.504C193.448 204.504 194.024 203.928 194.024 203.19C194.024 202.452 193.448 201.876 192.728 201.876C191.99 201.876 191.414 202.452 191.414 203.19C191.414 203.928 191.99 204.504 192.728 204.504ZM196.754 212.982C196.754 214.998 197.852 215.736 199.616 215.736H201.236V214.026H199.976C199.112 214.026 198.824 213.72 198.824 212.982V207.492H201.236V205.818H198.824V203.352H196.754V205.818H195.584V207.492H196.754V212.982ZM207.119 210.732C207.119 213.792 209.189 215.898 211.763 215.898C213.419 215.898 214.607 215.106 215.237 214.26V215.736H217.307V205.818H215.237V207.258C214.625 206.448 213.473 205.656 211.799 205.656C209.189 205.656 207.119 207.672 207.119 210.732ZM215.237 210.768C215.237 212.91 213.779 214.116 212.231 214.116C210.701 214.116 209.225 212.874 209.225 210.732C209.225 208.59 210.701 207.438 212.231 207.438C213.779 207.438 215.237 208.644 215.237 210.768ZM234.06 215.736H236.094V209.886C236.094 207.114 234.33 205.656 232.008 205.656C230.568 205.656 229.164 206.412 228.552 207.618C227.868 206.322 226.554 205.656 224.988 205.656C223.8 205.656 222.72 206.142 222.054 206.952V205.818H220.002V215.736H222.054V210.192C222.054 208.374 223.044 207.438 224.556 207.438C226.05 207.438 227.04 208.374 227.04 210.192V215.736H229.074V210.192C229.074 208.374 230.064 207.438 231.576 207.438C233.07 207.438 234.06 208.374 234.06 210.192V215.736ZM242.881 207.384C244.411 207.384 245.617 208.356 245.653 209.886H240.163C240.379 208.32 241.495 207.384 242.881 207.384ZM247.525 212.784H245.311C244.933 213.558 244.231 214.17 242.971 214.17C241.459 214.17 240.289 213.18 240.145 211.542H247.723C247.777 211.2 247.795 210.876 247.795 210.534C247.795 207.618 245.797 205.656 242.971 205.656C240.037 205.656 238.021 207.654 238.021 210.768C238.021 213.882 240.127 215.898 242.971 215.898C245.401 215.898 246.967 214.512 247.525 212.784ZM250.139 212.982C250.139 214.998 251.237 215.736 253.001 215.736H254.621V214.026H253.361C252.497 214.026 252.209 213.72 252.209 212.982V207.492H254.621V205.818H252.209V203.352H250.139V205.818H248.969V207.492H250.139V212.982ZM255.252 218.238H256.584L258.762 213.27H256.53L255.252 218.238ZM264.547 210.768C264.547 213.882 266.563 215.898 269.407 215.898C271.837 215.898 273.421 214.548 273.979 212.604H271.765C271.387 213.63 270.631 214.17 269.407 214.17C267.751 214.17 266.653 212.946 266.653 210.768C266.653 208.608 267.751 207.384 269.407 207.384C270.631 207.384 271.423 207.996 271.765 208.95H273.979C273.421 206.862 271.837 205.656 269.407 205.656C266.563 205.656 264.547 207.672 264.547 210.768ZM285.474 210.768C285.474 207.654 283.242 205.656 280.416 205.656C277.59 205.656 275.358 207.654 275.358 210.768C275.358 213.882 277.5 215.898 280.326 215.898C283.17 215.898 285.474 213.882 285.474 210.768ZM277.446 210.768C277.446 208.518 278.832 207.438 280.38 207.438C281.91 207.438 283.368 208.518 283.368 210.768C283.368 213.018 281.856 214.116 280.326 214.116C278.778 214.116 277.446 213.018 277.446 210.768ZM294.54 215.736H296.574V209.886C296.574 207.114 294.828 205.656 292.506 205.656C291.318 205.656 290.22 206.142 289.554 206.952V205.818H287.502V215.736H289.554V210.192C289.554 208.374 290.544 207.438 292.056 207.438C293.55 207.438 294.54 208.374 294.54 210.192V215.736ZM306.59 212.964C306.482 209.382 300.884 210.498 300.884 208.5C300.884 207.834 301.46 207.384 302.558 207.384C303.674 207.384 304.34 207.978 304.412 208.842H306.464C306.356 206.862 304.88 205.656 302.63 205.656C300.29 205.656 298.814 206.934 298.814 208.518C298.814 212.154 304.574 211.038 304.574 212.982C304.574 213.666 303.944 214.17 302.756 214.17C301.622 214.17 300.848 213.504 300.776 212.694H298.652C298.742 214.494 300.416 215.898 302.792 215.898C305.132 215.898 306.59 214.638 306.59 212.964ZM312.983 207.384C314.513 207.384 315.719 208.356 315.755 209.886H310.265C310.481 208.32 311.597 207.384 312.983 207.384ZM317.627 212.784H315.413C315.035 213.558 314.333 214.17 313.073 214.17C311.561 214.17 310.391 213.18 310.247 211.542H317.825C317.879 211.2 317.897 210.876 317.897 210.534C317.897 207.618 315.899 205.656 313.073 205.656C310.139 205.656 308.123 207.654 308.123 210.768C308.123 213.882 310.229 215.898 313.073 215.898C315.503 215.898 317.069 214.512 317.627 212.784ZM319.232 210.768C319.232 213.882 321.248 215.898 324.092 215.898C326.522 215.898 328.106 214.548 328.664 212.604H326.45C326.072 213.63 325.316 214.17 324.092 214.17C322.436 214.17 321.338 212.946 321.338 210.768C321.338 208.608 322.436 207.384 324.092 207.384C325.316 207.384 326.108 207.996 326.45 208.95H328.664C328.106 206.862 326.522 205.656 324.092 205.656C321.248 205.656 319.232 207.672 319.232 210.768ZM331.033 212.982C331.033 214.998 332.131 215.736 333.895 215.736H335.515V214.026H334.255C333.391 214.026 333.103 213.72 333.103 212.982V207.492H335.515V205.818H333.103V203.352H331.033V205.818H329.863V207.492H331.033V212.982ZM341.583 207.384C343.113 207.384 344.319 208.356 344.355 209.886H338.865C339.081 208.32 340.197 207.384 341.583 207.384ZM346.227 212.784H344.013C343.635 213.558 342.933 214.17 341.673 214.17C340.161 214.17 338.991 213.18 338.847 211.542H346.425C346.479 211.2 346.497 210.876 346.497 210.534C346.497 207.618 344.499 205.656 341.673 205.656C338.739 205.656 336.723 207.654 336.723 210.768C336.723 213.882 338.829 215.898 341.673 215.898C344.103 215.898 345.669 214.512 346.227 212.784ZM348.84 212.982C348.84 214.998 349.938 215.736 351.702 215.736H353.322V214.026H352.062C351.198 214.026 350.91 213.72 350.91 212.982V207.492H353.322V205.818H350.91V203.352H348.84V205.818H347.67V207.492H348.84V212.982ZM364.195 205.818H362.143V211.344C362.143 213.162 361.153 214.098 359.641 214.098C358.147 214.098 357.157 213.162 357.157 211.344V205.818H355.123V211.65C355.123 214.422 356.887 215.88 359.209 215.88C360.379 215.88 361.495 215.394 362.143 214.548V215.736H364.195V205.818ZM368.955 210.516C368.955 208.41 369.891 207.78 371.403 207.78H371.925V205.656C370.521 205.656 369.531 206.268 368.955 207.258V205.818H366.903V215.736H368.955V210.516ZM377.803 210.732C377.803 213.792 379.873 215.898 382.447 215.898C384.103 215.898 385.291 215.106 385.921 214.26V215.736H387.991V205.818H385.921V207.258C385.309 206.448 384.157 205.656 382.483 205.656C379.873 205.656 377.803 207.672 377.803 210.732ZM385.921 210.768C385.921 212.91 384.463 214.116 382.915 214.116C381.385 214.116 379.909 212.874 379.909 210.732C379.909 208.59 381.385 207.438 382.915 207.438C384.463 207.438 385.921 208.644 385.921 210.768ZM390.002 210.732C390.002 213.792 392.072 215.898 394.682 215.898C396.302 215.898 397.49 215.142 398.12 214.242V215.736H400.19V202.416H398.12V207.204C397.364 206.268 395.996 205.656 394.7 205.656C392.072 205.656 390.002 207.672 390.002 210.732ZM398.12 210.768C398.12 212.91 396.662 214.116 395.114 214.116C393.584 214.116 392.108 212.874 392.108 210.732C392.108 208.59 393.584 207.438 395.114 207.438C396.662 207.438 398.12 208.644 398.12 210.768ZM402.885 215.736H404.937V205.818H402.885V215.736ZM403.929 204.504C404.649 204.504 405.225 203.928 405.225 203.19C405.225 202.452 404.649 201.876 403.929 201.876C403.191 201.876 402.615 202.452 402.615 203.19C402.615 203.928 403.191 204.504 403.929 204.504ZM409.683 207.276V205.818H407.631V220.452H409.683V214.296C410.331 215.07 411.501 215.898 413.139 215.898C415.749 215.898 417.801 213.792 417.801 210.732C417.801 207.672 415.749 205.656 413.139 205.656C411.519 205.656 410.313 206.448 409.683 207.276ZM415.713 210.732C415.713 212.874 414.237 214.116 412.689 214.116C411.159 214.116 409.683 212.91 409.683 210.768C409.683 208.644 411.159 207.438 412.689 207.438C414.237 207.438 415.713 208.59 415.713 210.732ZM419.83 215.736H421.882V205.818H419.83V215.736ZM420.874 204.504C421.594 204.504 422.17 203.928 422.17 203.19C422.17 202.452 421.594 201.876 420.874 201.876C420.136 201.876 419.56 202.452 419.56 203.19C419.56 203.928 420.136 204.504 420.874 204.504ZM431.975 212.964C431.867 209.382 426.269 210.498 426.269 208.5C426.269 207.834 426.845 207.384 427.943 207.384C429.059 207.384 429.725 207.978 429.797 208.842H431.849C431.741 206.862 430.265 205.656 428.015 205.656C425.675 205.656 424.199 206.934 424.199 208.518C424.199 212.154 429.959 211.038 429.959 212.982C429.959 213.666 429.329 214.17 428.141 214.17C427.007 214.17 426.233 213.504 426.161 212.694H424.037C424.127 214.494 425.801 215.898 428.177 215.898C430.517 215.898 431.975 214.638 431.975 212.964ZM433.508 210.768C433.508 213.882 435.524 215.898 438.368 215.898C440.798 215.898 442.382 214.548 442.94 212.604H440.726C440.348 213.63 439.592 214.17 438.368 214.17C436.712 214.17 435.614 212.946 435.614 210.768C435.614 208.608 436.712 207.384 438.368 207.384C439.592 207.384 440.384 207.996 440.726 208.95H442.94C442.382 206.862 440.798 205.656 438.368 205.656C435.524 205.656 433.508 207.672 433.508 210.768ZM444.985 215.736H447.037V205.818H444.985V215.736ZM446.029 204.504C446.749 204.504 447.325 203.928 447.325 203.19C447.325 202.452 446.749 201.876 446.029 201.876C445.291 201.876 444.715 202.452 444.715 203.19C444.715 203.928 445.291 204.504 446.029 204.504ZM456.769 215.736H458.803V209.886C458.803 207.114 457.057 205.656 454.735 205.656C453.547 205.656 452.449 206.142 451.783 206.952V205.818H449.731V215.736H451.783V210.192C451.783 208.374 452.773 207.438 454.285 207.438C455.779 207.438 456.769 208.374 456.769 210.192V215.736ZM460.736 210.732C460.736 213.792 462.806 215.898 465.416 215.898C467.036 215.898 468.224 215.088 468.854 214.242V215.898C468.854 217.878 467.666 218.85 466.082 218.85C464.66 218.85 463.562 218.148 463.256 217.122H461.222C461.474 219.318 463.436 220.632 466.082 220.632C469.178 220.632 470.924 218.598 470.924 215.898V205.818H468.854V207.258C468.242 206.412 467.036 205.656 465.416 205.656C462.806 205.656 460.736 207.672 460.736 210.732ZM468.854 210.768C468.854 212.91 467.396 214.116 465.848 214.116C464.318 214.116 462.842 212.874 462.842 210.732C462.842 208.59 464.318 207.438 465.848 207.438C467.396 207.438 468.854 208.644 468.854 210.768ZM29.1227 243.384C30.6527 243.384 31.8587 244.356 31.8947 245.886H26.4047C26.6207 244.32 27.7367 243.384 29.1227 243.384ZM33.7667 248.784H31.5527C31.1747 249.558 30.4727 250.17 29.2127 250.17C27.7007 250.17 26.5307 249.18 26.3867 247.542H33.9647C34.0187 247.2 34.0367 246.876 34.0367 246.534C34.0367 243.618 32.0387 241.656 29.2127 241.656C26.2787 241.656 24.2627 243.654 24.2627 246.768C24.2627 249.882 26.3687 251.898 29.2127 251.898C31.6427 251.898 33.2087 250.512 33.7667 248.784ZM36.0561 251.736H38.1081V238.416H36.0561V251.736ZM40.8021 251.736H42.8541V241.818H40.8021V251.736ZM41.8461 240.504C42.5661 240.504 43.1421 239.928 43.1421 239.19C43.1421 238.452 42.5661 237.876 41.8461 237.876C41.1081 237.876 40.5321 238.452 40.5321 239.19C40.5321 239.928 41.1081 240.504 41.8461 240.504ZM45.8722 248.982C45.8722 250.998 46.9702 251.736 48.7342 251.736H50.3542V250.026H49.0942C48.2302 250.026 47.9422 249.72 47.9422 248.982V243.492H50.3542V241.818H47.9422V239.352H45.8722V241.818H44.7022V243.492H45.8722V248.982ZM54.3695 250.548C54.3695 249.81 53.7935 249.234 53.0735 249.234C52.3355 249.234 51.7595 249.81 51.7595 250.548C51.7595 251.286 52.3355 251.862 53.0735 251.862C53.7935 251.862 54.3695 251.286 54.3695 250.548ZM60.5791 245.454C60.5791 249.216 63.4411 251.844 66.9691 251.844C69.5791 251.844 71.8291 250.548 72.7831 248.1H70.3171C69.6511 249.432 68.4631 250.062 66.9691 250.062C64.4851 250.062 62.6851 248.28 62.6851 245.454C62.6851 242.628 64.4851 240.864 66.9691 240.864C68.4631 240.864 69.6511 241.494 70.3171 242.826H72.7831C71.8291 240.378 69.5791 239.064 66.9691 239.064C63.4411 239.064 60.5791 241.71 60.5791 245.454ZM84.167 241.818H82.115V247.344C82.115 249.162 81.125 250.098 79.613 250.098C78.119 250.098 77.129 249.162 77.129 247.344V241.818H75.095V247.65C75.095 250.422 76.859 251.88 79.181 251.88C80.351 251.88 81.467 251.394 82.115 250.548V251.736H84.167V241.818ZM88.9264 246.516C88.9264 244.41 89.8624 243.78 91.3744 243.78H91.8964V241.656C90.4924 241.656 89.5024 242.268 88.9264 243.258V241.818H86.8744V251.736H88.9264V246.516ZM93.0986 246.732C93.0986 249.792 95.1686 251.898 97.7426 251.898C99.3986 251.898 100.587 251.106 101.217 250.26V251.736H103.287V241.818H101.217V243.258C100.605 242.448 99.4526 241.656 97.7786 241.656C95.1686 241.656 93.0986 243.672 93.0986 246.732ZM101.217 246.768C101.217 248.91 99.7586 250.116 98.2106 250.116C96.6806 250.116 95.2046 248.874 95.2046 246.732C95.2046 244.59 96.6806 243.438 98.2106 243.438C99.7586 243.438 101.217 244.644 101.217 246.768ZM108.034 243.294V238.416H105.982V251.736H108.034V250.296C108.682 251.16 109.852 251.898 111.49 251.898C114.1 251.898 116.152 249.792 116.152 246.732C116.152 243.672 114.118 241.656 111.49 241.656C109.924 241.656 108.682 242.394 108.034 243.294ZM114.064 246.732C114.064 248.874 112.588 250.116 111.04 250.116C109.51 250.116 108.034 248.91 108.034 246.768C108.034 244.644 109.51 243.438 111.04 243.438C112.588 243.438 114.064 244.59 114.064 246.732ZM118.181 251.736H120.233V241.818H118.181V251.736ZM119.225 240.504C119.945 240.504 120.521 239.928 120.521 239.19C120.521 238.452 119.945 237.876 119.225 237.876C118.487 237.876 117.911 238.452 117.911 239.19C117.911 239.928 118.487 240.504 119.225 240.504ZM123.251 248.982C123.251 250.998 124.349 251.736 126.113 251.736H127.733V250.026H126.473C125.609 250.026 125.321 249.72 125.321 248.982V243.492H127.733V241.818H125.321V239.352H123.251V241.818H122.081V243.492H123.251V248.982ZM138.606 241.818H136.554V247.344C136.554 249.162 135.564 250.098 134.052 250.098C132.558 250.098 131.568 249.162 131.568 247.344V241.818H129.534V247.65C129.534 250.422 131.298 251.88 133.62 251.88C134.79 251.88 135.906 251.394 136.554 250.548V251.736H138.606V241.818ZM143.366 246.516C143.366 244.41 144.302 243.78 145.814 243.78H146.336V241.656C144.932 241.656 143.942 242.268 143.366 243.258V241.818H141.314V251.736H143.366V246.516ZM153.222 248.982C153.222 250.998 154.32 251.736 156.084 251.736H157.704V250.026H156.444C155.58 250.026 155.292 249.72 155.292 248.982V243.492H157.704V241.818H155.292V239.352H153.222V241.818H152.052V243.492H153.222V248.982ZM163.771 243.384C165.301 243.384 166.507 244.356 166.543 245.886H161.053C161.269 244.32 162.385 243.384 163.771 243.384ZM168.415 248.784H166.201C165.823 249.558 165.121 250.17 163.861 250.17C162.349 250.17 161.179 249.18 161.035 247.542H168.613C168.667 247.2 168.685 246.876 168.685 246.534C168.685 243.618 166.687 241.656 163.861 241.656C160.927 241.656 158.911 243.654 158.911 246.768C158.911 249.882 161.017 251.898 163.861 251.898C166.291 251.898 167.857 250.512 168.415 248.784ZM184.762 251.736H186.796V245.886C186.796 243.114 185.032 241.656 182.71 241.656C181.27 241.656 179.866 242.412 179.254 243.618C178.57 242.322 177.256 241.656 175.69 241.656C174.502 241.656 173.422 242.142 172.756 242.952V241.818H170.704V251.736H172.756V246.192C172.756 244.374 173.746 243.438 175.258 243.438C176.752 243.438 177.742 244.374 177.742 246.192V251.736H179.776V246.192C179.776 244.374 180.766 243.438 182.278 243.438C183.772 243.438 184.762 244.374 184.762 246.192V251.736ZM191.46 243.276V241.818H189.408V256.452H191.46V250.296C192.108 251.07 193.278 251.898 194.916 251.898C197.526 251.898 199.578 249.792 199.578 246.732C199.578 243.672 197.526 241.656 194.916 241.656C193.296 241.656 192.09 242.448 191.46 243.276ZM197.49 246.732C197.49 248.874 196.014 250.116 194.466 250.116C192.936 250.116 191.46 248.91 191.46 246.768C191.46 244.644 192.936 243.438 194.466 243.438C196.014 243.438 197.49 244.59 197.49 246.732ZM211.057 246.768C211.057 243.654 208.825 241.656 205.999 241.656C203.173 241.656 200.941 243.654 200.941 246.768C200.941 249.882 203.083 251.898 205.909 251.898C208.753 251.898 211.057 249.882 211.057 246.768ZM203.029 246.768C203.029 244.518 204.415 243.438 205.963 243.438C207.493 243.438 208.951 244.518 208.951 246.768C208.951 249.018 207.439 250.116 205.909 250.116C204.361 250.116 203.029 249.018 203.029 246.768ZM215.137 246.516C215.137 244.41 216.073 243.78 217.585 243.78H218.107V241.656C216.703 241.656 215.713 242.268 215.137 243.258V241.818H213.085V251.736H215.137V246.516ZM231.707 251.736H233.741V245.886C233.741 243.114 231.995 241.656 229.673 241.656C228.485 241.656 227.387 242.142 226.721 242.952V241.818H224.669V251.736H226.721V246.192C226.721 244.374 227.711 243.438 229.223 243.438C230.717 243.438 231.707 244.374 231.707 246.192V251.736ZM245.341 241.818H243.289V247.344C243.289 249.162 242.299 250.098 240.787 250.098C239.293 250.098 238.303 249.162 238.303 247.344V241.818H236.269V247.65C236.269 250.422 238.033 251.88 240.355 251.88C241.525 251.88 242.641 251.394 243.289 250.548V251.736H245.341V241.818ZM255.086 251.736H257.12V245.886C257.12 243.114 255.374 241.656 253.052 241.656C251.864 241.656 250.766 242.142 250.1 242.952V241.818H248.048V251.736H250.1V246.192C250.1 244.374 251.09 243.438 252.602 243.438C254.096 243.438 255.086 244.374 255.086 246.192V251.736ZM259.054 246.768C259.054 249.882 261.07 251.898 263.914 251.898C266.344 251.898 267.928 250.548 268.486 248.604H266.272C265.894 249.63 265.138 250.17 263.914 250.17C262.258 250.17 261.16 248.946 261.16 246.768C261.16 244.608 262.258 243.384 263.914 243.384C265.138 243.384 265.93 243.996 266.272 244.95H268.486C267.928 242.862 266.344 241.656 263.914 241.656C261.07 241.656 259.054 243.672 259.054 246.768ZM282.244 251.736H284.278V245.886C284.278 243.114 282.532 241.656 280.21 241.656C279.022 241.656 277.924 242.142 277.258 242.952V241.818H275.206V251.736H277.258V246.192C277.258 244.374 278.248 243.438 279.76 243.438C281.254 243.438 282.244 244.374 282.244 246.192V251.736ZM296.346 246.768C296.346 243.654 294.114 241.656 291.288 241.656C288.462 241.656 286.23 243.654 286.23 246.768C286.23 249.882 288.372 251.898 291.198 251.898C294.042 251.898 296.346 249.882 296.346 246.768ZM288.318 246.768C288.318 244.518 289.704 243.438 291.252 243.438C292.782 243.438 294.24 244.518 294.24 246.768C294.24 249.018 292.728 250.116 291.198 250.116C289.65 250.116 288.318 249.018 288.318 246.768ZM305.412 251.736H307.446V245.886C307.446 243.114 305.7 241.656 303.378 241.656C302.19 241.656 301.092 242.142 300.426 242.952V241.818H298.374V251.736H300.426V246.192C300.426 244.374 301.416 243.438 302.928 243.438C304.422 243.438 305.412 244.374 305.412 246.192V251.736ZM321.778 251.736H323.812V245.886C323.812 243.114 322.066 241.656 319.744 241.656C318.556 241.656 317.458 242.142 316.792 242.952V241.818H314.74V251.736H316.792V246.192C316.792 244.374 317.782 243.438 319.294 243.438C320.788 243.438 321.778 244.374 321.778 246.192V251.736ZM330.605 243.384C332.135 243.384 333.341 244.356 333.377 245.886H327.887C328.103 244.32 329.219 243.384 330.605 243.384ZM335.249 248.784H333.035C332.657 249.558 331.955 250.17 330.695 250.17C329.183 250.17 328.013 249.18 327.869 247.542H335.447C335.501 247.2 335.519 246.876 335.519 246.534C335.519 243.618 333.521 241.656 330.695 241.656C327.761 241.656 325.745 243.654 325.745 246.768C325.745 249.882 327.851 251.898 330.695 251.898C333.125 251.898 334.691 250.512 335.249 248.784ZM336.854 246.732C336.854 249.792 338.924 251.898 341.48 251.898C343.154 251.898 344.396 251.07 344.972 250.296V256.452H347.042V241.818H344.972V243.258C344.396 242.448 343.19 241.656 341.552 241.656C338.924 241.656 336.854 243.672 336.854 246.732ZM344.972 246.768C344.972 248.91 343.514 250.116 341.966 250.116C340.436 250.116 338.96 248.874 338.96 246.732C338.96 244.59 340.436 243.438 341.966 243.438C343.514 243.438 344.972 244.644 344.972 246.768ZM358.72 241.818H356.668V247.344C356.668 249.162 355.678 250.098 354.166 250.098C352.672 250.098 351.682 249.162 351.682 247.344V241.818H349.648V247.65C349.648 250.422 351.412 251.88 353.734 251.88C354.904 251.88 356.02 251.394 356.668 250.548V251.736H358.72V241.818ZM365.603 243.384C367.133 243.384 368.339 244.356 368.375 245.886H362.885C363.101 244.32 364.217 243.384 365.603 243.384ZM370.247 248.784H368.033C367.655 249.558 366.953 250.17 365.693 250.17C364.181 250.17 363.011 249.18 362.867 247.542H370.445C370.499 247.2 370.517 246.876 370.517 246.534C370.517 243.618 368.519 241.656 365.693 241.656C362.759 241.656 360.743 243.654 360.743 246.768C360.743 249.882 362.849 251.898 365.693 251.898C368.123 251.898 369.689 250.512 370.247 248.784ZM381.388 243.384C382.918 243.384 384.124 244.356 384.16 245.886H378.67C378.886 244.32 380.002 243.384 381.388 243.384ZM386.032 248.784H383.818C383.44 249.558 382.738 250.17 381.478 250.17C379.966 250.17 378.796 249.18 378.652 247.542H386.23C386.284 247.2 386.302 246.876 386.302 246.534C386.302 243.618 384.304 241.656 381.478 241.656C378.544 241.656 376.528 243.654 376.528 246.768C376.528 249.882 378.634 251.898 381.478 251.898C383.908 251.898 385.474 250.512 386.032 248.784ZM397.304 241.818H395.252V247.344C395.252 249.162 394.262 250.098 392.75 250.098C391.256 250.098 390.266 249.162 390.266 247.344V241.818H388.232V247.65C388.232 250.422 389.996 251.88 392.318 251.88C393.488 251.88 394.604 251.394 395.252 250.548V251.736H397.304V241.818ZM400.011 251.736H402.063V241.818H400.011V251.736ZM401.055 240.504C401.775 240.504 402.351 239.928 402.351 239.19C402.351 238.452 401.775 237.876 401.055 237.876C400.317 237.876 399.741 238.452 399.741 239.19C399.741 239.928 400.317 240.504 401.055 240.504ZM412.155 248.964C412.047 245.382 406.449 246.498 406.449 244.5C406.449 243.834 407.025 243.384 408.123 243.384C409.239 243.384 409.905 243.978 409.977 244.842H412.029C411.921 242.862 410.445 241.656 408.195 241.656C405.855 241.656 404.379 242.934 404.379 244.518C404.379 248.154 410.139 247.038 410.139 248.982C410.139 249.666 409.509 250.17 408.321 250.17C407.187 250.17 406.413 249.504 406.341 248.694H404.217C404.307 250.494 405.981 251.898 408.357 251.898C410.697 251.898 412.155 250.638 412.155 248.964ZM428.43 251.736H430.464V245.886C430.464 243.114 428.7 241.656 426.378 241.656C424.938 241.656 423.534 242.412 422.922 243.618C422.238 242.322 420.924 241.656 419.358 241.656C418.17 241.656 417.09 242.142 416.424 242.952V241.818H414.372V251.736H416.424V246.192C416.424 244.374 417.414 243.438 418.926 243.438C420.42 243.438 421.41 244.374 421.41 246.192V251.736H423.444V246.192C423.444 244.374 424.434 243.438 425.946 243.438C427.44 243.438 428.43 244.374 428.43 246.192V251.736ZM442.526 246.768C442.526 243.654 440.294 241.656 437.468 241.656C434.642 241.656 432.41 243.654 432.41 246.768C432.41 249.882 434.552 251.898 437.378 251.898C440.222 251.898 442.526 249.882 442.526 246.768ZM434.498 246.768C434.498 244.518 435.884 243.438 437.432 243.438C438.962 243.438 440.42 244.518 440.42 246.768C440.42 249.018 438.908 250.116 437.378 250.116C435.83 250.116 434.498 249.018 434.498 246.768ZM443.87 246.732C443.87 249.792 445.94 251.898 448.55 251.898C450.17 251.898 451.358 251.142 451.988 250.242V251.736H454.058V238.416H451.988V243.204C451.232 242.268 449.864 241.656 448.568 241.656C445.94 241.656 443.87 243.672 443.87 246.732ZM451.988 246.768C451.988 248.91 450.53 250.116 448.982 250.116C447.452 250.116 445.976 248.874 445.976 246.732C445.976 244.59 447.452 243.438 448.982 243.438C450.53 243.438 451.988 244.644 451.988 246.768ZM25.2057 279.276V277.818H23.1537V292.452H25.2057V286.296C25.8537 287.07 27.0237 287.898 28.6617 287.898C31.2717 287.898 33.3237 285.792 33.3237 282.732C33.3237 279.672 31.2717 277.656 28.6617 277.656C27.0417 277.656 25.8357 278.448 25.2057 279.276ZM31.2357 282.732C31.2357 284.874 29.7597 286.116 28.2117 286.116C26.6817 286.116 25.2057 284.91 25.2057 282.768C25.2057 280.644 26.6817 279.438 28.2117 279.438C29.7597 279.438 31.2357 280.59 31.2357 282.732ZM44.8029 282.768C44.8029 279.654 42.5709 277.656 39.7449 277.656C36.9189 277.656 34.6869 279.654 34.6869 282.768C34.6869 285.882 36.8289 287.898 39.6549 287.898C42.4989 287.898 44.8029 285.882 44.8029 282.768ZM36.7749 282.768C36.7749 280.518 38.1609 279.438 39.7089 279.438C41.2389 279.438 42.6969 280.518 42.6969 282.768C42.6969 285.018 41.1849 286.116 39.6549 286.116C38.1069 286.116 36.7749 285.018 36.7749 282.768ZM48.8834 282.516C48.8834 280.41 49.8194 279.78 51.3314 279.78H51.8534V277.656C50.4494 277.656 49.4594 278.268 48.8834 279.258V277.818H46.8314V287.736H48.8834V282.516ZM54.0636 284.982C54.0636 286.998 55.1616 287.736 56.9256 287.736H58.5456V286.026H57.2856C56.4216 286.026 56.1336 285.72 56.1336 284.982V279.492H58.5456V277.818H56.1336V275.352H54.0636V277.818H52.8936V279.492H54.0636V284.982ZM60.7609 284.982C60.7609 286.998 61.8589 287.736 63.6229 287.736H65.2429V286.026H63.9829C63.1189 286.026 62.8309 285.72 62.8309 284.982V279.492H65.2429V277.818H62.8309V275.352H60.7609V277.818H59.5909V279.492H60.7609V284.982ZM67.1342 287.736H69.1862V277.818H67.1342V287.736ZM68.1782 276.504C68.8982 276.504 69.4742 275.928 69.4742 275.19C69.4742 274.452 68.8982 273.876 68.1782 273.876C67.4402 273.876 66.8642 274.452 66.8642 275.19C66.8642 275.928 67.4402 276.504 68.1782 276.504ZM72.2043 284.982C72.2043 286.998 73.3023 287.736 75.0663 287.736H76.6863V286.026H75.4263C74.5623 286.026 74.2743 285.72 74.2743 284.982V279.492H76.6863V277.818H74.2743V275.352H72.2043V277.818H71.0343V279.492H72.2043V284.982ZM88.0275 282.768C88.0275 279.654 85.7955 277.656 82.9695 277.656C80.1435 277.656 77.9115 279.654 77.9115 282.768C77.9115 285.882 80.0535 287.898 82.8795 287.898C85.7235 287.898 88.0275 285.882 88.0275 282.768ZM79.9995 282.768C79.9995 280.518 81.3855 279.438 82.9335 279.438C84.4635 279.438 85.9215 280.518 85.9215 282.768C85.9215 285.018 84.4095 286.116 82.8795 286.116C81.3315 286.116 79.9995 285.018 79.9995 282.768ZM92.1081 282.516C92.1081 280.41 93.0441 279.78 94.5561 279.78H95.0781V277.656C93.6741 277.656 92.6841 278.268 92.1081 279.258V277.818H90.0561V287.736H92.1081V282.516ZM99.0883 286.548C99.0883 285.81 98.5123 285.234 97.7923 285.234C97.0543 285.234 96.4783 285.81 96.4783 286.548C96.4783 287.286 97.0543 287.862 97.7923 287.862C98.5123 287.862 99.0883 287.286 99.0883 286.548ZM114.208 275.208V284.532L108.034 275.208H105.982V287.736H108.034V278.394L114.208 287.736H116.26V275.208H114.208ZM127.936 277.818H125.884V283.344C125.884 285.162 124.894 286.098 123.382 286.098C121.888 286.098 120.898 285.162 120.898 283.344V277.818H118.864V283.65C118.864 286.422 120.628 287.88 122.95 287.88C124.12 287.88 125.236 287.394 125.884 286.548V287.736H127.936V277.818ZM130.644 287.736H132.696V274.416H130.644V287.736ZM135.39 287.736H137.442V274.416H135.39V287.736ZM139.452 282.732C139.452 285.792 141.522 287.898 144.096 287.898C145.752 287.898 146.94 287.106 147.57 286.26V287.736H149.64V277.818H147.57V279.258C146.958 278.448 145.806 277.656 144.132 277.656C141.522 277.656 139.452 279.672 139.452 282.732ZM147.57 282.768C147.57 284.91 146.112 286.116 144.564 286.116C143.034 286.116 141.558 284.874 141.558 282.732C141.558 280.59 143.034 279.438 144.564 279.438C146.112 279.438 147.57 280.644 147.57 282.768ZM166.393 287.736H168.427V281.886C168.427 279.114 166.663 277.656 164.341 277.656C162.901 277.656 161.497 278.412 160.885 279.618C160.201 278.322 158.887 277.656 157.321 277.656C156.133 277.656 155.053 278.142 154.387 278.952V277.818H152.335V287.736H154.387V282.192C154.387 280.374 155.377 279.438 156.889 279.438C158.383 279.438 159.373 280.374 159.373 282.192V287.736H161.407V282.192C161.407 280.374 162.397 279.438 163.909 279.438C165.403 279.438 166.393 280.374 166.393 282.192V287.736ZM175.714 287.736H177.766V274.416H175.714V287.736ZM179.776 282.732C179.776 285.792 181.846 287.898 184.42 287.898C186.076 287.898 187.264 287.106 187.894 286.26V287.736H189.964V277.818H187.894V279.258C187.282 278.448 186.13 277.656 184.456 277.656C181.846 277.656 179.776 279.672 179.776 282.732ZM187.894 282.768C187.894 284.91 186.436 286.116 184.888 286.116C183.358 286.116 181.882 284.874 181.882 282.732C181.882 280.59 183.358 279.438 184.888 279.438C186.436 279.438 187.894 280.644 187.894 282.768ZM191.976 282.768C191.976 285.882 193.992 287.898 196.836 287.898C199.266 287.898 200.85 286.548 201.408 284.604H199.194C198.816 285.63 198.06 286.17 196.836 286.17C195.18 286.17 194.082 284.946 194.082 282.768C194.082 280.608 195.18 279.384 196.836 279.384C198.06 279.384 198.852 279.996 199.194 280.95H201.408C200.85 278.862 199.266 277.656 196.836 277.656C193.992 277.656 191.976 279.672 191.976 282.768ZM212.435 277.818H210.383V283.344C210.383 285.162 209.393 286.098 207.881 286.098C206.387 286.098 205.397 285.162 205.397 283.344V277.818H203.363V283.65C203.363 286.422 205.127 287.88 207.449 287.88C208.619 287.88 209.735 287.394 210.383 286.548V287.736H212.435V277.818ZM222.54 284.964C222.432 281.382 216.834 282.498 216.834 280.5C216.834 279.834 217.41 279.384 218.508 279.384C219.624 279.384 220.29 279.978 220.362 280.842H222.414C222.306 278.862 220.83 277.656 218.58 277.656C216.24 277.656 214.764 278.934 214.764 280.518C214.764 284.154 220.524 283.038 220.524 284.982C220.524 285.666 219.894 286.17 218.706 286.17C217.572 286.17 216.798 285.504 216.726 284.694H214.602C214.692 286.494 216.366 287.898 218.742 287.898C221.082 287.898 222.54 286.638 222.54 284.964ZM233.609 279.384C235.139 279.384 236.345 280.356 236.381 281.886H230.891C231.107 280.32 232.223 279.384 233.609 279.384ZM238.253 284.784H236.039C235.661 285.558 234.959 286.17 233.699 286.17C232.187 286.17 231.017 285.18 230.873 283.542H238.451C238.505 283.2 238.523 282.876 238.523 282.534C238.523 279.618 236.525 277.656 233.699 277.656C230.765 277.656 228.749 279.654 228.749 282.768C228.749 285.882 230.855 287.898 233.699 287.898C236.129 287.898 237.695 286.512 238.253 284.784ZM247.94 284.964C247.832 281.382 242.234 282.498 242.234 280.5C242.234 279.834 242.81 279.384 243.908 279.384C245.024 279.384 245.69 279.978 245.762 280.842H247.814C247.706 278.862 246.23 277.656 243.98 277.656C241.64 277.656 240.164 278.934 240.164 280.518C240.164 284.154 245.924 283.038 245.924 284.982C245.924 285.666 245.294 286.17 244.106 286.17C242.972 286.17 242.198 285.504 242.126 284.694H240.002C240.092 286.494 241.766 287.898 244.142 287.898C246.482 287.898 247.94 286.638 247.94 284.964ZM250.482 284.982C250.482 286.998 251.58 287.736 253.344 287.736H254.964V286.026H253.704C252.84 286.026 252.552 285.72 252.552 284.982V279.492H254.964V277.818H252.552V275.352H250.482V277.818H249.312V279.492H250.482V284.982ZM255.595 290.238H256.927L259.105 285.27H256.873L255.595 290.238ZM265.898 284.982C265.898 286.998 266.996 287.736 268.76 287.736H270.38V286.026H269.12C268.256 286.026 267.968 285.72 267.968 284.982V279.492H270.38V277.818H267.968V275.352H265.898V277.818H264.728V279.492H265.898V284.982ZM272.271 287.736H274.323V277.818H272.271V287.736ZM273.315 276.504C274.035 276.504 274.611 275.928 274.611 275.19C274.611 274.452 274.035 273.876 273.315 273.876C272.577 273.876 272.001 274.452 272.001 275.19C272.001 275.928 272.577 276.504 273.315 276.504ZM284.055 287.736H286.089V281.886C286.089 279.114 284.343 277.656 282.021 277.656C280.833 277.656 279.735 278.142 279.069 278.952V277.818H277.017V287.736H279.069V282.192C279.069 280.374 280.059 279.438 281.571 279.438C283.065 279.438 284.055 280.374 284.055 282.192V287.736ZM288.022 282.768C288.022 285.882 290.038 287.898 292.882 287.898C295.312 287.898 296.896 286.548 297.454 284.604H295.24C294.862 285.63 294.106 286.17 292.882 286.17C291.226 286.17 290.128 284.946 290.128 282.768C290.128 280.608 291.226 279.384 292.882 279.384C294.106 279.384 294.898 279.996 295.24 280.95H297.454C296.896 278.862 295.312 277.656 292.882 277.656C290.038 277.656 288.022 279.672 288.022 282.768ZM299.499 287.736H301.551V277.818H299.499V287.736ZM300.543 276.504C301.263 276.504 301.839 275.928 301.839 275.19C301.839 274.452 301.263 273.876 300.543 273.876C299.805 273.876 299.229 274.452 299.229 275.19C299.229 275.928 299.805 276.504 300.543 276.504ZM303.562 282.732C303.562 285.792 305.632 287.898 308.242 287.898C309.862 287.898 311.05 287.142 311.68 286.242V287.736H313.75V274.416H311.68V279.204C310.924 278.268 309.556 277.656 308.26 277.656C305.632 277.656 303.562 279.672 303.562 282.732ZM311.68 282.768C311.68 284.91 310.222 286.116 308.674 286.116C307.144 286.116 305.668 284.874 305.668 282.732C305.668 280.59 307.144 279.438 308.674 279.438C310.222 279.438 311.68 280.644 311.68 282.768ZM325.427 277.818H323.375V283.344C323.375 285.162 322.385 286.098 320.873 286.098C319.379 286.098 318.389 285.162 318.389 283.344V277.818H316.355V283.65C316.355 286.422 318.119 287.88 320.441 287.88C321.611 287.88 322.727 287.394 323.375 286.548V287.736H325.427V277.818ZM335.172 287.736H337.206V281.886C337.206 279.114 335.46 277.656 333.138 277.656C331.95 277.656 330.852 278.142 330.186 278.952V277.818H328.134V287.736H330.186V282.192C330.186 280.374 331.176 279.438 332.688 279.438C334.182 279.438 335.172 280.374 335.172 282.192V287.736ZM340.148 284.982C340.148 286.998 341.246 287.736 343.01 287.736H344.63V286.026H343.37C342.506 286.026 342.218 285.72 342.218 284.982V279.492H344.63V277.818H342.218V275.352H340.148V277.818H338.978V279.492H340.148V284.982ZM355.373 279.384C356.903 279.384 358.109 280.356 358.145 281.886H352.655C352.871 280.32 353.987 279.384 355.373 279.384ZM360.017 284.784H357.803C357.425 285.558 356.723 286.17 355.463 286.17C353.951 286.17 352.781 285.18 352.637 283.542H360.215C360.269 283.2 360.287 282.876 360.287 282.534C360.287 279.618 358.289 277.656 355.463 277.656C352.529 277.656 350.513 279.654 350.513 282.768C350.513 285.882 352.619 287.898 355.463 287.898C357.893 287.898 359.459 286.512 360.017 284.784ZM361.622 282.732C361.622 285.792 363.692 287.898 366.302 287.898C367.922 287.898 369.11 287.088 369.74 286.242V287.898C369.74 289.878 368.552 290.85 366.968 290.85C365.546 290.85 364.448 290.148 364.142 289.122H362.108C362.36 291.318 364.322 292.632 366.968 292.632C370.064 292.632 371.81 290.598 371.81 287.898V277.818H369.74V279.258C369.128 278.412 367.922 277.656 366.302 277.656C363.692 277.656 361.622 279.672 361.622 282.732ZM369.74 282.768C369.74 284.91 368.282 286.116 366.734 286.116C365.204 286.116 363.728 284.874 363.728 282.732C363.728 280.59 365.204 279.438 366.734 279.438C368.282 279.438 369.74 280.644 369.74 282.768ZM378.681 279.384C380.211 279.384 381.417 280.356 381.453 281.886H375.963C376.179 280.32 377.295 279.384 378.681 279.384ZM383.325 284.784H381.111C380.733 285.558 380.031 286.17 378.771 286.17C377.259 286.17 376.089 285.18 375.945 283.542H383.523C383.577 283.2 383.595 282.876 383.595 282.534C383.595 279.618 381.597 277.656 378.771 277.656C375.837 277.656 373.821 279.654 373.821 282.768C373.821 285.882 375.927 287.898 378.771 287.898C381.201 287.898 382.767 286.512 383.325 284.784ZM385.939 284.982C385.939 286.998 387.037 287.736 388.801 287.736H390.421V286.026H389.161C388.297 286.026 388.009 285.72 388.009 284.982V279.492H390.421V277.818H388.009V275.352H385.939V277.818H384.769V279.492H385.939V284.982ZM404.386 284.964C404.278 281.382 398.68 282.498 398.68 280.5C398.68 279.834 399.256 279.384 400.354 279.384C401.47 279.384 402.136 279.978 402.208 280.842H404.26C404.152 278.862 402.676 277.656 400.426 277.656C398.086 277.656 396.61 278.934 396.61 280.518C396.61 284.154 402.37 283.038 402.37 284.982C402.37 285.666 401.74 286.17 400.552 286.17C399.418 286.17 398.644 285.504 398.572 284.694H396.448C396.538 286.494 398.212 287.898 400.588 287.898C402.928 287.898 404.386 286.638 404.386 284.964ZM405.919 282.732C405.919 285.792 407.989 287.898 410.563 287.898C412.219 287.898 413.407 287.106 414.037 286.26V287.736H416.107V277.818H414.037V279.258C413.425 278.448 412.273 277.656 410.599 277.656C407.989 277.656 405.919 279.672 405.919 282.732ZM414.037 282.768C414.037 284.91 412.579 286.116 411.031 286.116C409.501 286.116 408.025 284.874 408.025 282.732C408.025 280.59 409.501 279.438 411.031 279.438C412.579 279.438 414.037 280.644 414.037 282.768ZM420.854 279.276V277.818H418.802V292.452H420.854V286.296C421.502 287.07 422.672 287.898 424.31 287.898C426.92 287.898 428.972 285.792 428.972 282.732C428.972 279.672 426.92 277.656 424.31 277.656C422.69 277.656 421.484 278.448 420.854 279.276ZM426.884 282.732C426.884 284.874 425.408 286.116 423.86 286.116C422.33 286.116 420.854 284.91 420.854 282.768C420.854 280.644 422.33 279.438 423.86 279.438C425.408 279.438 426.884 280.59 426.884 282.732ZM431.001 287.736H433.053V277.818H431.001V287.736ZM432.045 276.504C432.765 276.504 433.341 275.928 433.341 275.19C433.341 274.452 432.765 273.876 432.045 273.876C431.307 273.876 430.731 274.452 430.731 275.19C430.731 275.928 431.307 276.504 432.045 276.504ZM439.923 279.384C441.453 279.384 442.659 280.356 442.695 281.886H437.205C437.421 280.32 438.537 279.384 439.923 279.384ZM444.567 284.784H442.353C441.975 285.558 441.273 286.17 440.013 286.17C438.501 286.17 437.331 285.18 437.187 283.542H444.765C444.819 283.2 444.837 282.876 444.837 282.534C444.837 279.618 442.839 277.656 440.013 277.656C437.079 277.656 435.063 279.654 435.063 282.768C435.063 285.882 437.169 287.898 440.013 287.898C442.443 287.898 444.009 286.512 444.567 284.784ZM453.895 287.736H455.929V281.886C455.929 279.114 454.183 277.656 451.861 277.656C450.673 277.656 449.575 278.142 448.909 278.952V277.818H446.857V287.736H448.909V282.192C448.909 280.374 449.899 279.438 451.411 279.438C452.905 279.438 453.895 280.374 453.895 282.192V287.736ZM5.66467 315.384C7.19467 315.384 8.40067 316.356 8.43667 317.886H2.94667C3.16267 316.32 4.27867 315.384 5.66467 315.384ZM10.3087 320.784H8.09467C7.71667 321.558 7.01467 322.17 5.75467 322.17C4.24267 322.17 3.07267 321.18 2.92867 319.542H10.5067C10.5607 319.2 10.5787 318.876 10.5787 318.534C10.5787 315.618 8.58067 313.656 5.75467 313.656C2.82067 313.656 0.804672 315.654 0.804672 318.768C0.804672 321.882 2.91067 323.898 5.75467 323.898C8.18467 323.898 9.75067 322.512 10.3087 320.784ZM11.914 318.732C11.914 321.792 13.984 323.898 16.594 323.898C18.214 323.898 19.402 323.088 20.032 322.242V323.898C20.032 325.878 18.844 326.85 17.26 326.85C15.838 326.85 14.74 326.148 14.434 325.122H12.4C12.652 327.318 14.614 328.632 17.26 328.632C20.356 328.632 22.102 326.598 22.102 323.898V313.818H20.032V315.258C19.42 314.412 18.214 313.656 16.594 313.656C13.984 313.656 11.914 315.672 11.914 318.732ZM20.032 318.768C20.032 320.91 18.574 322.116 17.026 322.116C15.496 322.116 14.02 320.874 14.02 318.732C14.02 316.59 15.496 315.438 17.026 315.438C18.574 315.438 20.032 316.644 20.032 318.768ZM28.9733 315.384C30.5033 315.384 31.7093 316.356 31.7453 317.886H26.2553C26.4713 316.32 27.5873 315.384 28.9733 315.384ZM33.6173 320.784H31.4033C31.0253 321.558 30.3233 322.17 29.0633 322.17C27.5513 322.17 26.3813 321.18 26.2373 319.542H33.8153C33.8693 319.2 33.8873 318.876 33.8873 318.534C33.8873 315.618 31.8893 313.656 29.0633 313.656C26.1293 313.656 24.1133 315.654 24.1133 318.768C24.1133 321.882 26.2193 323.898 29.0633 323.898C31.4933 323.898 33.0593 322.512 33.6173 320.784ZM36.2306 320.982C36.2306 322.998 37.3286 323.736 39.0926 323.736H40.7126V322.026H39.4526C38.5886 322.026 38.3006 321.72 38.3006 320.982V315.492H40.7126V313.818H38.3006V311.352H36.2306V313.818H35.0606V315.492H36.2306V320.982ZM41.3439 326.238H42.6759L44.8539 321.27H42.6219L41.3439 326.238ZM65.3807 323.736H67.4147V317.886C67.4147 315.114 65.6507 313.656 63.3287 313.656C61.8887 313.656 60.4847 314.412 59.8727 315.618C59.1887 314.322 57.8747 313.656 56.3087 313.656C55.1207 313.656 54.0407 314.142 53.3747 314.952V313.818H51.3227V323.736H53.3747V318.192C53.3747 316.374 54.3647 315.438 55.8767 315.438C57.3707 315.438 58.3607 316.374 58.3607 318.192V323.736H60.3947V318.192C60.3947 316.374 61.3847 315.438 62.8967 315.438C64.3907 315.438 65.3807 316.374 65.3807 318.192V323.736ZM69.3418 318.732C69.3418 321.792 71.4118 323.898 73.9858 323.898C75.6418 323.898 76.8298 323.106 77.4598 322.26V323.736H79.5298V313.818H77.4598V315.258C76.8478 314.448 75.6958 313.656 74.0218 313.656C71.4118 313.656 69.3418 315.672 69.3418 318.732ZM77.4598 318.768C77.4598 320.91 76.0018 322.116 74.4538 322.116C72.9238 322.116 71.4478 320.874 71.4478 318.732C71.4478 316.59 72.9238 315.438 74.4538 315.438C76.0018 315.438 77.4598 316.644 77.4598 318.768ZM87.355 323.736H89.677L86.473 318.714L89.677 313.818H87.535L85.519 317.184L83.377 313.818H81.055L84.259 318.858L81.055 323.736H83.197L85.213 320.37L87.355 323.736ZM91.2074 323.736H93.2594V313.818H91.2074V323.736ZM92.2514 312.504C92.9714 312.504 93.5474 311.928 93.5474 311.19C93.5474 310.452 92.9714 309.876 92.2514 309.876C91.5134 309.876 90.9374 310.452 90.9374 311.19C90.9374 311.928 91.5134 312.504 92.2514 312.504ZM110.012 323.736H112.046V317.886C112.046 315.114 110.282 313.656 107.96 313.656C106.52 313.656 105.116 314.412 104.504 315.618C103.82 314.322 102.506 313.656 100.94 313.656C99.7515 313.656 98.6715 314.142 98.0055 314.952V313.818H95.9535V323.736H98.0055V318.192C98.0055 316.374 98.9955 315.438 100.508 315.438C102.002 315.438 102.992 316.374 102.992 318.192V323.736H105.026V318.192C105.026 316.374 106.016 315.438 107.528 315.438C109.022 315.438 110.012 316.374 110.012 318.192V323.736ZM123.639 313.818H121.587V319.344C121.587 321.162 120.597 322.098 119.085 322.098C117.591 322.098 116.601 321.162 116.601 319.344V313.818H114.567V319.65C114.567 322.422 116.331 323.88 118.653 323.88C119.823 323.88 120.939 323.394 121.587 322.548V323.736H123.639V313.818ZM133.744 320.964C133.636 317.382 128.038 318.498 128.038 316.5C128.038 315.834 128.614 315.384 129.712 315.384C130.828 315.384 131.494 315.978 131.566 316.842H133.618C133.51 314.862 132.034 313.656 129.784 313.656C127.444 313.656 125.968 314.934 125.968 316.518C125.968 320.154 131.728 319.038 131.728 320.982C131.728 321.666 131.098 322.17 129.91 322.17C128.776 322.17 128.002 321.504 127.93 320.694H125.806C125.896 322.494 127.57 323.898 129.946 323.898C132.286 323.898 133.744 322.638 133.744 320.964ZM139.953 318.768C139.953 321.882 141.969 323.898 144.813 323.898C147.243 323.898 148.827 322.548 149.385 320.604H147.171C146.793 321.63 146.037 322.17 144.813 322.17C143.157 322.17 142.059 320.946 142.059 318.768C142.059 316.608 143.157 315.384 144.813 315.384C146.037 315.384 146.829 315.996 147.171 316.95H149.385C148.827 314.862 147.243 313.656 144.813 313.656C141.969 313.656 139.953 315.672 139.953 318.768ZM160.88 318.768C160.88 315.654 158.648 313.656 155.822 313.656C152.996 313.656 150.764 315.654 150.764 318.768C150.764 321.882 152.906 323.898 155.732 323.898C158.576 323.898 160.88 321.882 160.88 318.768ZM152.852 318.768C152.852 316.518 154.238 315.438 155.786 315.438C157.316 315.438 158.774 316.518 158.774 318.768C158.774 321.018 157.262 322.116 155.732 322.116C154.184 322.116 152.852 321.018 152.852 318.768ZM169.947 323.736H171.981V317.886C171.981 315.114 170.235 313.656 167.913 313.656C166.725 313.656 165.627 314.142 164.961 314.952V313.818H162.909V323.736H164.961V318.192C164.961 316.374 165.951 315.438 167.463 315.438C168.957 315.438 169.947 316.374 169.947 318.192V323.736ZM173.428 313.818L177.19 323.736H179.638L183.418 313.818H181.24L178.432 321.9L175.624 313.818H173.428ZM184.285 318.732C184.285 321.792 186.355 323.898 188.929 323.898C190.585 323.898 191.773 323.106 192.403 322.26V323.736H194.473V313.818H192.403V315.258C191.791 314.448 190.639 313.656 188.965 313.656C186.355 313.656 184.285 315.672 184.285 318.732ZM192.403 318.768C192.403 320.91 190.945 322.116 189.397 322.116C187.867 322.116 186.391 320.874 186.391 318.732C186.391 316.59 187.867 315.438 189.397 315.438C190.945 315.438 192.403 316.644 192.403 318.768ZM197.168 323.736H199.22V310.416H197.168V323.736ZM201.914 323.736H203.966V310.416H201.914V323.736ZM206.661 323.736H208.713V313.818H206.661V323.736ZM207.705 312.504C208.425 312.504 209.001 311.928 209.001 311.19C209.001 310.452 208.425 309.876 207.705 309.876C206.967 309.876 206.391 310.452 206.391 311.19C206.391 311.928 206.967 312.504 207.705 312.504ZM218.805 320.964C218.697 317.382 213.099 318.498 213.099 316.5C213.099 315.834 213.675 315.384 214.773 315.384C215.889 315.384 216.555 315.978 216.627 316.842H218.679C218.571 314.862 217.095 313.656 214.845 313.656C212.505 313.656 211.029 314.934 211.029 316.518C211.029 320.154 216.789 319.038 216.789 320.982C216.789 321.666 216.159 322.17 214.971 322.17C213.837 322.17 213.063 321.504 212.991 320.694H210.867C210.957 322.494 212.631 323.898 215.007 323.898C217.347 323.898 218.805 322.638 218.805 320.964ZM239.756 323.736H241.79V317.886C241.79 315.114 240.026 313.656 237.704 313.656C236.264 313.656 234.86 314.412 234.248 315.618C233.564 314.322 232.25 313.656 230.684 313.656C229.496 313.656 228.416 314.142 227.75 314.952V313.818H225.698V323.736H227.75V318.192C227.75 316.374 228.74 315.438 230.252 315.438C231.746 315.438 232.736 316.374 232.736 318.192V323.736H234.77V318.192C234.77 316.374 235.76 315.438 237.272 315.438C238.766 315.438 239.756 316.374 239.756 318.192V323.736ZM243.717 318.732C243.717 321.792 245.787 323.898 248.361 323.898C250.017 323.898 251.205 323.106 251.835 322.26V323.736H253.905V313.818H251.835V315.258C251.223 314.448 250.071 313.656 248.397 313.656C245.787 313.656 243.717 315.672 243.717 318.732ZM251.835 318.768C251.835 320.91 250.377 322.116 248.829 322.116C247.299 322.116 245.823 320.874 245.823 318.732C245.823 316.59 247.299 315.438 248.829 315.438C250.377 315.438 251.835 316.644 251.835 318.768ZM263.998 320.964C263.89 317.382 258.292 318.498 258.292 316.5C258.292 315.834 258.868 315.384 259.966 315.384C261.082 315.384 261.748 315.978 261.82 316.842H263.872C263.764 314.862 262.288 313.656 260.038 313.656C257.698 313.656 256.222 314.934 256.222 316.518C256.222 320.154 261.982 319.038 261.982 320.982C261.982 321.666 261.352 322.17 260.164 322.17C259.03 322.17 258.256 321.504 258.184 320.694H256.06C256.15 322.494 257.824 323.898 260.2 323.898C262.54 323.898 263.998 322.638 263.998 320.964ZM273.613 320.964C273.505 317.382 267.907 318.498 267.907 316.5C267.907 315.834 268.483 315.384 269.581 315.384C270.697 315.384 271.363 315.978 271.435 316.842H273.487C273.379 314.862 271.903 313.656 269.653 313.656C267.313 313.656 265.837 314.934 265.837 316.518C265.837 320.154 271.597 319.038 271.597 320.982C271.597 321.666 270.967 322.17 269.779 322.17C268.645 322.17 267.871 321.504 267.799 320.694H265.675C265.765 322.494 267.439 323.898 269.815 323.898C272.155 323.898 273.613 322.638 273.613 320.964ZM275.146 318.732C275.146 321.792 277.216 323.898 279.79 323.898C281.446 323.898 282.634 323.106 283.264 322.26V323.736H285.334V313.818H283.264V315.258C282.652 314.448 281.5 313.656 279.826 313.656C277.216 313.656 275.146 315.672 275.146 318.732ZM283.264 318.768C283.264 320.91 281.806 322.116 280.258 322.116C278.728 322.116 277.252 320.874 277.252 318.732C277.252 316.59 278.728 315.438 280.258 315.438C281.806 315.438 283.264 316.644 283.264 318.768ZM290.154 322.548C290.154 321.81 289.578 321.234 288.858 321.234C288.12 321.234 287.544 321.81 287.544 322.548C287.544 323.286 288.12 323.862 288.858 323.862C289.578 323.862 290.154 323.286 290.154 322.548ZM296.363 317.454C296.363 321.216 299.225 323.844 302.753 323.844C305.363 323.844 307.613 322.548 308.567 320.1H306.101C305.435 321.432 304.247 322.062 302.753 322.062C300.269 322.062 298.469 320.28 298.469 317.454C298.469 314.628 300.269 312.864 302.753 312.864C304.247 312.864 305.435 313.494 306.101 314.826H308.567C307.613 312.378 305.363 311.064 302.753 311.064C299.225 311.064 296.363 313.71 296.363 317.454ZM319.951 313.818H317.899V319.344C317.899 321.162 316.909 322.098 315.397 322.098C313.903 322.098 312.913 321.162 312.913 319.344V313.818H310.879V319.65C310.879 322.422 312.643 323.88 314.965 323.88C316.135 323.88 317.251 323.394 317.899 322.548V323.736H319.951V313.818ZM324.711 318.516C324.711 316.41 325.647 315.78 327.159 315.78H327.681V313.656C326.277 313.656 325.287 314.268 324.711 315.258V313.818H322.659V323.736H324.711V318.516ZM328.883 318.732C328.883 321.792 330.953 323.898 333.527 323.898C335.183 323.898 336.371 323.106 337.001 322.26V323.736H339.071V313.818H337.001V315.258C336.389 314.448 335.237 313.656 333.563 313.656C330.953 313.656 328.883 315.672 328.883 318.732ZM337.001 318.768C337.001 320.91 335.543 322.116 333.995 322.116C332.465 322.116 330.989 320.874 330.989 318.732C330.989 316.59 332.465 315.438 333.995 315.438C335.543 315.438 337.001 316.644 337.001 318.768ZM343.818 315.294V310.416H341.766V323.736H343.818V322.296C344.466 323.16 345.636 323.898 347.274 323.898C349.884 323.898 351.936 321.792 351.936 318.732C351.936 315.672 349.902 313.656 347.274 313.656C345.708 313.656 344.466 314.394 343.818 315.294ZM349.848 318.732C349.848 320.874 348.372 322.116 346.824 322.116C345.294 322.116 343.818 320.91 343.818 318.768C343.818 316.644 345.294 315.438 346.824 315.438C348.372 315.438 349.848 316.59 349.848 318.732ZM353.965 323.736H356.017V313.818H353.965V323.736ZM355.009 312.504C355.729 312.504 356.305 311.928 356.305 311.19C356.305 310.452 355.729 309.876 355.009 309.876C354.271 309.876 353.695 310.452 353.695 311.19C353.695 311.928 354.271 312.504 355.009 312.504ZM359.035 320.982C359.035 322.998 360.133 323.736 361.897 323.736H363.517V322.026H362.257C361.393 322.026 361.105 321.72 361.105 320.982V315.492H363.517V313.818H361.105V311.352H359.035V313.818H357.865V315.492H359.035V320.982ZM374.391 313.818H372.339V319.344C372.339 321.162 371.349 322.098 369.837 322.098C368.343 322.098 367.353 321.162 367.353 319.344V313.818H365.319V319.65C365.319 322.422 367.083 323.88 369.405 323.88C370.575 323.88 371.691 323.394 372.339 322.548V323.736H374.391V313.818ZM379.15 318.516C379.15 316.41 380.086 315.78 381.598 315.78H382.12V313.656C380.716 313.656 379.726 314.268 379.15 315.258V313.818H377.098V323.736H379.15V318.516ZM387.998 318.732C387.998 321.792 390.068 323.898 392.624 323.898C394.298 323.898 395.54 323.07 396.116 322.296V328.452H398.186V313.818H396.116V315.258C395.54 314.448 394.334 313.656 392.696 313.656C390.068 313.656 387.998 315.672 387.998 318.732ZM396.116 318.768C396.116 320.91 394.658 322.116 393.11 322.116C391.58 322.116 390.104 320.874 390.104 318.732C390.104 316.59 391.58 315.438 393.11 315.438C394.658 315.438 396.116 316.644 396.116 318.768ZM409.863 313.818H407.811V319.344C407.811 321.162 406.821 322.098 405.309 322.098C403.815 322.098 402.825 321.162 402.825 319.344V313.818H400.791V319.65C400.791 322.422 402.555 323.88 404.877 323.88C406.047 323.88 407.163 323.394 407.811 322.548V323.736H409.863V313.818ZM412.571 323.736H414.623V313.818H412.571V323.736ZM413.615 312.504C414.335 312.504 414.911 311.928 414.911 311.19C414.911 310.452 414.335 309.876 413.615 309.876C412.877 309.876 412.301 310.452 412.301 311.19C412.301 311.928 412.877 312.504 413.615 312.504ZM424.715 320.964C424.607 317.382 419.009 318.498 419.009 316.5C419.009 315.834 419.585 315.384 420.683 315.384C421.799 315.384 422.465 315.978 422.537 316.842H424.589C424.481 314.862 423.005 313.656 420.755 313.656C418.415 313.656 416.939 314.934 416.939 316.518C416.939 320.154 422.699 319.038 422.699 320.982C422.699 321.666 422.069 322.17 420.881 322.17C419.747 322.17 418.973 321.504 418.901 320.694H416.777C416.867 322.494 418.541 323.898 420.917 323.898C423.257 323.898 424.715 322.638 424.715 320.964ZM431.932 320.982C431.932 322.998 433.03 323.736 434.794 323.736H436.414V322.026H435.154C434.29 322.026 434.002 321.72 434.002 320.982V315.492H436.414V313.818H434.002V311.352H431.932V313.818H430.762V315.492H431.932V320.982ZM442.481 315.384C444.011 315.384 445.217 316.356 445.253 317.886H439.763C439.979 316.32 441.095 315.384 442.481 315.384ZM447.125 320.784H444.911C444.533 321.558 443.831 322.17 442.571 322.17C441.059 322.17 439.889 321.18 439.745 319.542H447.323C447.377 319.2 447.395 318.876 447.395 318.534C447.395 315.618 445.397 313.656 442.571 313.656C439.637 313.656 437.621 315.654 437.621 318.768C437.621 321.882 439.727 323.898 442.571 323.898C445.001 323.898 446.567 322.512 447.125 320.784ZM449.414 323.736H451.466V310.416H449.414V323.736ZM454.161 323.736H456.213V310.416H454.161V323.736ZM467.889 313.818H465.837V319.344C465.837 321.162 464.847 322.098 463.335 322.098C461.841 322.098 460.851 321.162 460.851 319.344V313.818H458.817V319.65C458.817 322.422 460.581 323.88 462.903 323.88C464.073 323.88 465.189 323.394 465.837 322.548V323.736H467.889V313.818ZM477.994 320.964C477.886 317.382 472.288 318.498 472.288 316.5C472.288 315.834 472.864 315.384 473.962 315.384C475.078 315.384 475.744 315.978 475.816 316.842H477.868C477.76 314.862 476.284 313.656 474.034 313.656C471.694 313.656 470.218 314.934 470.218 316.518C470.218 320.154 475.978 319.038 475.978 320.982C475.978 321.666 475.348 322.17 474.16 322.17C473.026 322.17 472.252 321.504 472.18 320.694H470.056C470.146 322.494 471.82 323.898 474.196 323.898C476.536 323.898 477.994 322.638 477.994 320.964ZM132.219 354.732C132.219 357.792 134.289 359.898 136.863 359.898C138.519 359.898 139.707 359.106 140.337 358.26V359.736H142.407V349.818H140.337V351.258C139.725 350.448 138.573 349.656 136.899 349.656C134.289 349.656 132.219 351.672 132.219 354.732ZM140.337 354.768C140.337 356.91 138.879 358.116 137.331 358.116C135.801 358.116 134.325 356.874 134.325 354.732C134.325 352.59 135.801 351.438 137.331 351.438C138.879 351.438 140.337 352.644 140.337 354.768ZM150.102 356.982C150.102 358.998 151.2 359.736 152.964 359.736H154.584V358.026H153.324C152.46 358.026 152.172 357.72 152.172 356.982V351.492H154.584V349.818H152.172V347.352H150.102V349.818H148.932V351.492H150.102V356.982ZM165.925 354.768C165.925 351.654 163.693 349.656 160.867 349.656C158.041 349.656 155.809 351.654 155.809 354.768C155.809 357.882 157.951 359.898 160.777 359.898C163.621 359.898 165.925 357.882 165.925 354.768ZM157.897 354.768C157.897 352.518 159.283 351.438 160.831 351.438C162.361 351.438 163.819 352.518 163.819 354.768C163.819 357.018 162.307 358.116 160.777 358.116C159.229 358.116 157.897 357.018 157.897 354.768ZM170.006 354.516C170.006 352.41 170.942 351.78 172.454 351.78H172.976V349.656C171.572 349.656 170.582 350.268 170.006 351.258V349.818H167.954V359.736H170.006V354.516ZM175.186 356.982C175.186 358.998 176.284 359.736 178.048 359.736H179.668V358.026H178.408C177.544 358.026 177.256 357.72 177.256 356.982V351.492H179.668V349.818H177.256V347.352H175.186V349.818H174.016V351.492H175.186V356.982ZM191.009 354.768C191.009 351.654 188.777 349.656 185.951 349.656C183.125 349.656 180.893 351.654 180.893 354.768C180.893 357.882 183.035 359.898 185.861 359.898C188.705 359.898 191.009 357.882 191.009 354.768ZM182.981 354.768C182.981 352.518 184.367 351.438 185.915 351.438C187.445 351.438 188.903 352.518 188.903 354.768C188.903 357.018 187.391 358.116 185.861 358.116C184.313 358.116 182.981 357.018 182.981 354.768ZM195.09 354.516C195.09 352.41 196.026 351.78 197.538 351.78H198.06V349.656C196.656 349.656 195.666 350.268 195.09 351.258V349.818H193.038V359.736H195.09V354.516ZM208.797 351.384C210.327 351.384 211.533 352.356 211.569 353.886H206.079C206.295 352.32 207.411 351.384 208.797 351.384ZM213.441 356.784H211.227C210.849 357.558 210.147 358.17 208.887 358.17C207.375 358.17 206.205 357.18 206.061 355.542H213.639C213.693 355.2 213.711 354.876 213.711 354.534C213.711 351.618 211.713 349.656 208.887 349.656C205.953 349.656 203.937 351.654 203.937 354.768C203.937 357.882 206.043 359.898 208.887 359.898C211.317 359.898 212.883 358.512 213.441 356.784ZM215.047 354.732C215.047 357.792 217.117 359.898 219.727 359.898C221.347 359.898 222.535 359.088 223.165 358.242V359.898C223.165 361.878 221.977 362.85 220.393 362.85C218.971 362.85 217.873 362.148 217.567 361.122H215.533C215.785 363.318 217.747 364.632 220.393 364.632C223.489 364.632 225.235 362.598 225.235 359.898V349.818H223.165V351.258C222.553 350.412 221.347 349.656 219.727 349.656C217.117 349.656 215.047 351.672 215.047 354.732ZM223.165 354.768C223.165 356.91 221.707 358.116 220.159 358.116C218.629 358.116 217.153 356.874 217.153 354.732C217.153 352.59 218.629 351.438 220.159 351.438C221.707 351.438 223.165 352.644 223.165 354.768ZM232.106 351.384C233.636 351.384 234.842 352.356 234.878 353.886H229.388C229.604 352.32 230.72 351.384 232.106 351.384ZM236.75 356.784H234.536C234.158 357.558 233.456 358.17 232.196 358.17C230.684 358.17 229.514 357.18 229.37 355.542H236.948C237.002 355.2 237.02 354.876 237.02 354.534C237.02 351.618 235.022 349.656 232.196 349.656C229.262 349.656 227.246 351.654 227.246 354.768C227.246 357.882 229.352 359.898 232.196 359.898C234.626 359.898 236.192 358.512 236.75 356.784ZM246.437 356.964C246.329 353.382 240.731 354.498 240.731 352.5C240.731 351.834 241.307 351.384 242.405 351.384C243.521 351.384 244.187 351.978 244.259 352.842H246.311C246.203 350.862 244.727 349.656 242.477 349.656C240.137 349.656 238.661 350.934 238.661 352.518C238.661 356.154 244.421 355.038 244.421 356.982C244.421 357.666 243.791 358.17 242.603 358.17C241.469 358.17 240.695 357.504 240.623 356.694H238.499C238.589 358.494 240.263 359.898 242.639 359.898C244.979 359.898 246.437 358.638 246.437 356.964ZM248.979 356.982C248.979 358.998 250.077 359.736 251.841 359.736H253.461V358.026H252.201C251.337 358.026 251.049 357.72 251.049 356.982V351.492H253.461V349.818H251.049V347.352H248.979V349.818H247.809V351.492H248.979V356.982ZM254.668 354.732C254.668 357.792 256.738 359.898 259.312 359.898C260.968 359.898 262.156 359.106 262.786 358.26V359.736H264.856V349.818H262.786V351.258C262.174 350.448 261.022 349.656 259.348 349.656C256.738 349.656 254.668 351.672 254.668 354.732ZM262.786 354.768C262.786 356.91 261.328 358.116 259.78 358.116C258.25 358.116 256.774 356.874 256.774 354.732C256.774 352.59 258.25 351.438 259.78 351.438C261.328 351.438 262.786 352.644 262.786 354.768ZM274.949 356.964C274.841 353.382 269.243 354.498 269.243 352.5C269.243 351.834 269.819 351.384 270.917 351.384C272.033 351.384 272.699 351.978 272.771 352.842H274.823C274.715 350.862 273.239 349.656 270.989 349.656C268.649 349.656 267.173 350.934 267.173 352.518C267.173 356.154 272.933 355.038 272.933 356.982C272.933 357.666 272.303 358.17 271.115 358.17C269.981 358.17 269.207 357.504 269.135 356.694H267.011C267.101 358.494 268.775 359.898 271.151 359.898C273.491 359.898 274.949 358.638 274.949 356.964ZM280.672 349.818L284.434 359.736H286.882L290.662 349.818H288.484L285.676 357.9L282.868 349.818H280.672ZM292.213 359.736H294.265V349.818H292.213V359.736ZM293.257 348.504C293.977 348.504 294.553 347.928 294.553 347.19C294.553 346.452 293.977 345.876 293.257 345.876C292.519 345.876 291.943 346.452 291.943 347.19C291.943 347.928 292.519 348.504 293.257 348.504ZM295.789 349.818L299.551 359.736H301.999L305.779 349.818H303.601L300.793 357.9L297.985 349.818H295.789ZM311.506 351.384C313.036 351.384 314.242 352.356 314.278 353.886H308.788C309.004 352.32 310.12 351.384 311.506 351.384ZM316.15 356.784H313.936C313.558 357.558 312.856 358.17 311.596 358.17C310.084 358.17 308.914 357.18 308.77 355.542H316.348C316.402 355.2 316.42 354.876 316.42 354.534C316.42 351.618 314.422 349.656 311.596 349.656C308.662 349.656 306.646 351.654 306.646 354.768C306.646 357.882 308.752 359.898 311.596 359.898C314.026 359.898 315.592 358.512 316.15 356.784ZM320.492 354.516C320.492 352.41 321.428 351.78 322.94 351.78H323.462V349.656C322.058 349.656 321.068 350.268 320.492 351.258V349.818H318.44V359.736H320.492V354.516ZM327.4 354.516C327.4 352.41 328.336 351.78 329.848 351.78H330.37V349.656C328.966 349.656 327.976 350.268 327.4 351.258V349.818H325.348V359.736H327.4V354.516ZM331.572 354.732C331.572 357.792 333.642 359.898 336.216 359.898C337.872 359.898 339.06 359.106 339.69 358.26V359.736H341.76V349.818H339.69V351.258C339.078 350.448 337.926 349.656 336.252 349.656C333.642 349.656 331.572 351.672 331.572 354.732ZM339.69 354.768C339.69 356.91 338.232 358.116 336.684 358.116C335.154 358.116 333.678 356.874 333.678 354.732C333.678 352.59 335.154 351.438 336.684 351.438C338.232 351.438 339.69 352.644 339.69 354.768ZM346.579 358.548C346.579 357.81 346.003 357.234 345.283 357.234C344.545 357.234 343.969 357.81 343.969 358.548C343.969 359.286 344.545 359.862 345.283 359.862C346.003 359.862 346.579 359.286 346.579 358.548Z" fill="#878787"/>
<path d="M61.89 137.312C61.122 135.904 60.066 134.832 58.722 134.096C57.378 133.36 55.81 132.992 54.018 132.992C52.034 132.992 50.274 133.44 48.738 134.336C47.202 135.232 46.002 136.512 45.138 138.176C44.274 139.84 43.842 141.76 43.842 143.936C43.842 146.176 44.274 148.128 45.138 149.792C46.034 151.456 47.266 152.736 48.834 153.632C50.402 154.528 52.226 154.976 54.306 154.976C56.866 154.976 58.962 154.304 60.594 152.96C62.226 151.584 63.298 149.68 63.81 147.248H52.29V142.112H70.434V147.968C69.986 150.304 69.026 152.464 67.554 154.448C66.082 156.432 64.178 158.032 61.842 159.248C59.538 160.432 56.946 161.024 54.066 161.024C50.834 161.024 47.906 160.304 45.282 158.864C42.69 157.392 40.642 155.36 39.138 152.768C37.666 150.176 36.93 147.232 36.93 143.936C36.93 140.64 37.666 137.696 39.138 135.104C40.642 132.48 42.69 130.448 45.282 129.008C47.906 127.536 50.818 126.8 54.018 126.8C57.794 126.8 61.074 127.728 63.858 129.584C66.642 131.408 68.562 133.984 69.618 137.312H61.89ZM82.1258 138.272C82.9898 136.864 84.1098 135.76 85.4858 134.96C86.8938 134.16 88.4938 133.76 90.2858 133.76V140.816H88.5098C86.3978 140.816 84.7978 141.312 83.7098 142.304C82.6538 143.296 82.1258 145.024 82.1258 147.488V160.736H75.4058V134.144H82.1258V138.272ZM119.532 146.864C119.532 147.824 119.468 148.688 119.34 149.456H99.9C100.06 151.376 100.732 152.88 101.916 153.968C103.1 155.056 104.556 155.6 106.284 155.6C108.78 155.6 110.556 154.528 111.612 152.384H118.86C118.092 154.944 116.62 157.056 114.444 158.72C112.268 160.352 109.596 161.168 106.428 161.168C103.868 161.168 101.564 160.608 99.516 159.488C97.5 158.336 95.916 156.72 94.764 154.64C93.644 152.56 93.084 150.16 93.084 147.44C93.084 144.688 93.644 142.272 94.764 140.192C95.884 138.112 97.452 136.512 99.468 135.392C101.484 134.272 103.804 133.712 106.428 133.712C108.956 133.712 111.212 134.256 113.196 135.344C115.212 136.432 116.764 137.984 117.852 140C118.972 141.984 119.532 144.272 119.532 146.864ZM112.572 144.944C112.54 143.216 111.916 141.84 110.7 140.816C109.484 139.76 107.996 139.232 106.236 139.232C104.572 139.232 103.164 139.744 102.012 140.768C100.892 141.76 100.204 143.152 99.948 144.944H112.572ZM122.709 147.344C122.709 144.656 123.237 142.272 124.293 140.192C125.381 138.112 126.837 136.512 128.661 135.392C130.517 134.272 132.581 133.712 134.853 133.712C136.837 133.712 138.565 134.112 140.037 134.912C141.541 135.712 142.741 136.72 143.637 137.936V134.144H150.405V160.736H143.637V156.848C142.773 158.096 141.573 159.136 140.037 159.968C138.533 160.768 136.789 161.168 134.805 161.168C132.565 161.168 130.517 160.592 128.661 159.44C126.837 158.288 125.381 156.672 124.293 154.592C123.237 152.48 122.709 150.064 122.709 147.344ZM143.637 147.44C143.637 145.808 143.317 144.416 142.677 143.264C142.037 142.08 141.173 141.184 140.085 140.576C138.997 139.936 137.829 139.616 136.581 139.616C135.333 139.616 134.181 139.92 133.125 140.528C132.069 141.136 131.205 142.032 130.533 143.216C129.893 144.368 129.573 145.744 129.573 147.344C129.573 148.944 129.893 150.352 130.533 151.568C131.205 152.752 132.069 153.664 133.125 154.304C134.213 154.944 135.365 155.264 136.581 155.264C137.829 155.264 138.997 154.96 140.085 154.352C141.173 153.712 142.037 152.816 142.677 151.664C143.317 150.48 143.637 149.072 143.637 147.44ZM164.792 139.664V152.528C164.792 153.424 165 154.08 165.416 154.496C165.864 154.88 166.6 155.072 167.624 155.072H170.744V160.736H166.52C160.856 160.736 158.024 157.984 158.024 152.48V139.664H154.856V134.144H158.024V127.568H164.792V134.144H170.744V139.664H164.792ZM194.839 139.664V152.528C194.839 153.424 195.047 154.08 195.463 154.496C195.911 154.88 196.647 155.072 197.671 155.072H200.791V160.736H196.567C190.903 160.736 188.071 157.984 188.071 152.48V139.664H184.903V134.144H188.071V127.568H194.839V134.144H200.791V139.664H194.839ZM230.345 146.864C230.345 147.824 230.281 148.688 230.153 149.456H210.713C210.873 151.376 211.545 152.88 212.729 153.968C213.913 155.056 215.369 155.6 217.097 155.6C219.593 155.6 221.369 154.528 222.425 152.384H229.673C228.905 154.944 227.433 157.056 225.257 158.72C223.081 160.352 220.409 161.168 217.241 161.168C214.681 161.168 212.377 160.608 210.329 159.488C208.313 158.336 206.729 156.72 205.577 154.64C204.457 152.56 203.896 150.16 203.896 147.44C203.896 144.688 204.457 142.272 205.577 140.192C206.697 138.112 208.265 136.512 210.281 135.392C212.297 134.272 214.617 133.712 217.241 133.712C219.769 133.712 222.025 134.256 224.009 135.344C226.025 136.432 227.577 137.984 228.665 140C229.785 141.984 230.345 144.272 230.345 146.864ZM223.385 144.944C223.353 143.216 222.729 141.84 221.513 140.816C220.297 139.76 218.809 139.232 217.049 139.232C215.385 139.232 213.977 139.744 212.825 140.768C211.705 141.76 211.017 143.152 210.761 144.944H223.385ZM233.521 147.344C233.521 144.656 234.049 142.272 235.105 140.192C236.194 138.112 237.65 136.512 239.474 135.392C241.33 134.272 243.394 133.712 245.666 133.712C247.65 133.712 249.378 134.112 250.85 134.912C252.354 135.712 253.554 136.72 254.45 137.936V134.144H261.218V160.736H254.45V156.848C253.586 158.096 252.386 159.136 250.85 159.968C249.346 160.768 247.602 161.168 245.618 161.168C243.378 161.168 241.33 160.592 239.474 159.44C237.65 158.288 236.194 156.672 235.105 154.592C234.049 152.48 233.521 150.064 233.521 147.344ZM254.45 147.44C254.45 145.808 254.13 144.416 253.49 143.264C252.85 142.08 251.986 141.184 250.898 140.576C249.81 139.936 248.642 139.616 247.394 139.616C246.146 139.616 244.994 139.92 243.938 140.528C242.882 141.136 242.018 142.032 241.346 143.216C240.706 144.368 240.386 145.744 240.386 147.344C240.386 148.944 240.706 150.352 241.346 151.568C242.018 152.752 242.882 153.664 243.938 154.304C245.026 154.944 246.178 155.264 247.394 155.264C248.642 155.264 249.81 154.96 250.898 154.352C251.986 153.712 252.85 152.816 253.49 151.664C254.13 150.48 254.45 149.072 254.45 147.44ZM300.805 133.76C304.069 133.76 306.693 134.768 308.677 136.784C310.693 138.768 311.701 141.552 311.701 145.136V160.736H304.981V146.048C304.981 143.968 304.453 142.384 303.397 141.296C302.341 140.176 300.901 139.616 299.077 139.616C297.253 139.616 295.797 140.176 294.709 141.296C293.653 142.384 293.125 143.968 293.125 146.048V160.736H286.405V146.048C286.405 143.968 285.877 142.384 284.821 141.296C283.765 140.176 282.325 139.616 280.501 139.616C278.645 139.616 277.173 140.176 276.085 141.296C275.029 142.384 274.501 143.968 274.501 146.048V160.736H267.781V134.144H274.501V137.36C275.365 136.24 276.469 135.36 277.813 134.72C279.189 134.08 280.693 133.76 282.325 133.76C284.405 133.76 286.261 134.208 287.893 135.104C289.525 135.968 290.789 137.216 291.685 138.848C292.549 137.312 293.797 136.08 295.429 135.152C297.093 134.224 298.885 133.76 300.805 133.76ZM366.379 134.144L358.603 160.736H351.355L346.507 142.16L341.659 160.736H334.363L326.539 134.144H333.355L338.059 154.4L343.147 134.144H350.251L355.243 154.352L359.947 134.144H366.379ZM381.823 161.168C379.263 161.168 376.959 160.608 374.911 159.488C372.863 158.336 371.247 156.72 370.063 154.64C368.911 152.56 368.335 150.16 368.335 147.44C368.335 144.72 368.927 142.32 370.111 140.24C371.327 138.16 372.975 136.56 375.055 135.44C377.135 134.288 379.455 133.712 382.015 133.712C384.575 133.712 386.895 134.288 388.975 135.44C391.055 136.56 392.687 138.16 393.871 140.24C395.087 142.32 395.695 144.72 395.695 147.44C395.695 150.16 395.071 152.56 393.823 154.64C392.607 156.72 390.943 158.336 388.831 159.488C386.751 160.608 384.415 161.168 381.823 161.168ZM381.823 155.312C383.039 155.312 384.175 155.024 385.231 154.448C386.319 153.84 387.183 152.944 387.823 151.76C388.463 150.576 388.783 149.136 388.783 147.44C388.783 144.912 388.111 142.976 386.767 141.632C385.455 140.256 383.839 139.568 381.919 139.568C379.999 139.568 378.383 140.256 377.071 141.632C375.791 142.976 375.151 144.912 375.151 147.44C375.151 149.968 375.775 151.92 377.023 153.296C378.303 154.64 379.903 155.312 381.823 155.312ZM407.345 138.272C408.209 136.864 409.329 135.76 410.705 134.96C412.113 134.16 413.713 133.76 415.505 133.76V140.816H413.729C411.617 140.816 410.017 141.312 408.929 142.304C407.873 143.296 407.345 145.024 407.345 147.488V160.736H400.625V134.144H407.345V138.272ZM435.775 160.736L426.751 149.408V160.736H420.031V125.216H426.751V145.424L435.679 134.144H444.415L432.703 147.488L444.511 160.736H435.775Z" fill="black"/>
</svg>
