<svg width="45" height="32" viewBox="0 0 45 32" fill="none" xmlns="http://www.w3.org/2000/svg">
<rect x="0.5" y="0.5" width="44" height="30.7647" rx="4.79412" fill="#1A1A1A" stroke="#333333"/>
<path d="M28.5583 6.65723C33.5146 6.65725 37.5327 10.6272 37.533 15.5244C37.533 20.4219 33.5148 24.3925 28.5583 24.3926C26.3359 24.3926 24.3035 23.5926 22.7361 22.2705C21.1688 23.5921 19.1377 24.3925 16.9158 24.3926C11.9593 24.3926 7.94116 20.4219 7.94116 15.5244C7.94141 10.6272 11.9595 6.65723 16.9158 6.65723C19.1374 6.65727 21.1689 7.45697 22.7361 8.77832C24.3035 7.45642 26.3361 6.65723 28.5583 6.65723Z" fill="#ED0006"/>
<path d="M28.5576 6.65723C33.5139 6.65723 37.532 10.6272 37.5322 15.5244C37.5322 20.4219 33.5141 24.3926 28.5576 24.3926C26.3355 24.3925 24.3037 23.5924 22.7363 22.2705C24.6648 20.644 25.8896 18.2261 25.8896 15.5244C25.8895 12.8227 24.665 10.4047 22.7363 8.77832C24.3036 7.45668 26.3357 6.65727 28.5576 6.65723Z" fill="#F9A000"/>
<path fill-rule="evenodd" clip-rule="evenodd" d="M22.737 22.2741C24.6665 20.6476 25.8899 18.2275 25.8899 15.525C25.8899 12.8225 24.6665 10.4024 22.737 8.77588C20.8075 10.4024 19.584 12.8225 19.584 15.525C19.584 18.2275 20.8075 20.6476 22.737 22.2741Z" fill="#FF5E00"/>
</svg>
