<svg width="20" height="21" viewBox="0 0 20 21" fill="none" xmlns="http://www.w3.org/2000/svg">
<path d="M5.83325 7.16667C4.9492 7.16667 4.10135 7.51786 3.47623 8.14298C2.85111 8.7681 2.49992 9.61594 2.49992 10.5C2.49992 11.3841 2.85111 12.2319 3.47623 12.857C4.10135 13.4821 4.9492 13.8333 5.83325 13.8333H7.49992C7.72093 13.8333 7.93289 13.9211 8.08917 14.0774C8.24545 14.2337 8.33325 14.4457 8.33325 14.6667C8.33325 14.8877 8.24545 15.0996 8.08917 15.2559C7.93289 15.4122 7.72093 15.5 7.49992 15.5H5.83325C4.50717 15.5 3.2354 14.9732 2.29772 14.0355C1.36004 13.0979 0.833252 11.8261 0.833252 10.5C0.833252 9.17392 1.36004 7.90215 2.29772 6.96447C3.2354 6.02678 4.50717 5.5 5.83325 5.5H7.49992C7.72093 5.5 7.93289 5.5878 8.08917 5.74408C8.24545 5.90036 8.33325 6.11232 8.33325 6.33333C8.33325 6.55435 8.24545 6.76631 8.08917 6.92259C7.93289 7.07887 7.72093 7.16667 7.49992 7.16667H5.83325ZM11.6666 6.33333C11.6666 6.11232 11.7544 5.90036 11.9107 5.74408C12.0669 5.5878 12.2789 5.5 12.4999 5.5H14.1666C15.4927 5.5 16.7644 6.02678 17.7021 6.96447C18.6398 7.90215 19.1666 9.17392 19.1666 10.5C19.1666 11.8261 18.6398 13.0979 17.7021 14.0355C16.7644 14.9732 15.4927 15.5 14.1666 15.5H12.4999C12.2789 15.5 12.0669 15.4122 11.9107 15.2559C11.7544 15.0996 11.6666 14.8877 11.6666 14.6667C11.6666 14.4457 11.7544 14.2337 11.9107 14.0774C12.0669 13.9211 12.2789 13.8333 12.4999 13.8333H14.1666C15.0506 13.8333 15.8985 13.4821 16.5236 12.857C17.1487 12.2319 17.4999 11.3841 17.4999 10.5C17.4999 9.61594 17.1487 8.7681 16.5236 8.14298C15.8985 7.51786 15.0506 7.16667 14.1666 7.16667H12.4999C12.2789 7.16667 12.0669 7.07887 11.9107 6.92259C11.7544 6.76631 11.6666 6.55435 11.6666 6.33333ZM5.83325 10.5C5.83325 10.279 5.92105 10.067 6.07733 9.91074C6.23361 9.75446 6.44557 9.66667 6.66658 9.66667H13.3333C13.5543 9.66667 13.7662 9.75446 13.9225 9.91074C14.0788 10.067 14.1666 10.279 14.1666 10.5C14.1666 10.721 14.0788 10.933 13.9225 11.0893C13.7662 11.2455 13.5543 11.3333 13.3333 11.3333H6.66658C6.44557 11.3333 6.23361 11.2455 6.07733 11.0893C5.92105 10.933 5.83325 10.721 5.83325 10.5Z" fill="#4D4D4D"/>
</svg>
